<svg width="45" height="36" viewBox="0 0 45 36" fill="none" xmlns="http://www.w3.org/2000/svg">
<path d="M38.0757 3.80204C35.2256 2.47345 32.1399 1.50915 28.9256 0.952003C28.8974 0.951102 28.8693 0.95639 28.8434 0.967498C28.8175 0.978605 28.7943 0.995261 28.7755 1.01629C28.3898 1.72344 27.9398 2.64488 27.6398 3.35204C24.2305 2.83774 20.7633 2.83774 17.354 3.35204C17.0539 2.62346 16.6039 1.72344 16.1968 1.01629C16.1754 0.973432 16.1111 0.952003 16.0468 0.952003C12.8325 1.50915 9.76813 2.47345 6.89666 3.80204C6.87523 3.80204 6.8538 3.82347 6.83237 3.8449C1.00371 12.5665 -0.603455 21.0523 0.189414 29.4524C0.189414 29.4953 0.210843 29.5381 0.253701 29.5596C4.1109 32.3882 7.8181 34.1025 11.4824 35.2382C11.5467 35.2596 11.611 35.2382 11.6324 35.1954C12.4896 34.0168 13.261 32.7739 13.9253 31.4667C13.9682 31.381 13.9253 31.2953 13.8396 31.2739C12.6182 30.8024 11.461 30.2453 10.3253 29.6024C10.2396 29.5596 10.2396 29.431 10.3038 29.3667C10.5396 29.1953 10.7753 29.0024 11.011 28.831C11.0539 28.7881 11.1181 28.7881 11.161 28.8096C18.5325 32.1739 26.4827 32.1739 33.7685 28.8096C33.8113 28.7881 33.8756 28.7881 33.9185 28.831C34.1542 29.0238 34.3899 29.1953 34.6256 29.3881C34.7113 29.4524 34.7113 29.581 34.6042 29.6238C33.4899 30.2881 32.3113 30.8239 31.0899 31.2953C31.0042 31.3167 30.9827 31.4239 31.0042 31.4882C31.6899 32.7953 32.4613 34.0382 33.297 35.2168C33.3613 35.2382 33.4256 35.2596 33.4899 35.2382C37.1757 34.1025 40.8829 32.3882 44.7401 29.5596C44.7829 29.5381 44.8044 29.4953 44.8044 29.4524C45.7472 19.7451 43.24 11.3236 38.1614 3.8449C38.14 3.82347 38.1185 3.80204 38.0757 3.80204ZM15.0396 24.3309C12.8325 24.3309 10.9896 22.2952 10.9896 19.788C10.9896 17.2808 12.7896 15.2451 15.0396 15.2451C17.3111 15.2451 19.1111 17.3022 19.0897 19.788C19.0897 22.2952 17.2897 24.3309 15.0396 24.3309ZM29.9756 24.3309C27.7684 24.3309 25.9255 22.2952 25.9255 19.788C25.9255 17.2808 27.7255 15.2451 29.9756 15.2451C32.247 15.2451 34.0471 17.3022 34.0256 19.788C34.0256 22.2952 32.247 24.3309 29.9756 24.3309Z" fill="white"/>
</svg>
