<svg width="219" height="77" viewBox="0 0 219 77" fill="none" xmlns="http://www.w3.org/2000/svg">
	<g filter="url(#filter0_d_579_497)">
		<path
			d="M71.2417 51.2114L69.1183 41.774L71.9495 37.999L79.9713 35.4037L89.6447 37.5271H92.9478L96.9587 38.7068L101.677 37.5271L108.048 38.9427L111.351 38.7068L115.598 37.2912L118.665 41.538L119.373 43.4255C116.541 43.2368 115.519 44.4479 115.362 45.0771L113.474 49.7958C112.373 51.2114 110.077 54.1842 109.699 54.7504C109.322 55.3167 105.138 54.5145 103.093 54.0426L98.3743 50.5036L90.1166 54.0426L83.5104 53.3348H78.5557L71.2417 51.2114Z"
			fill="#F5A97F"/>
		<path
			d="M50.4374 48.6274L50.4355 48.6322L50.4299 48.6462L50.4121 48.6894C50.3975 48.7249 50.3771 48.7733 50.3511 48.8334C50.2992 48.9536 50.2244 49.1211 50.1271 49.3253C49.9333 49.7322 49.647 50.2917 49.2706 50.9159C48.5369 52.133 47.3786 53.7353 45.785 54.8733C44.3167 55.9234 42.1389 56.694 40.1984 57.3806C40.0769 57.4236 39.9563 57.4663 39.8369 57.5087C37.6657 58.2793 35.677 59.0145 34.2235 59.9806C34.2179 59.9848 34.212 59.9893 34.2057 59.9941C34.1992 59.999 34.1923 60.0042 34.185 60.0096C34.1264 60.0536 34.0445 60.1138 33.941 60.1873C33.734 60.3341 33.4392 60.5348 33.068 60.7653C32.3284 61.2245 31.2709 61.8115 29.9898 62.3261C27.456 63.3439 23.8524 64.1535 20.0904 62.8747L50.4374 48.6274ZM50.4374 48.6274C50.4375 48.6273 50.4375 48.6272 50.4376 48.627C54.7633 37.7946 52.4803 30.2928 48.8239 25.5068C47.0395 23.1711 44.9846 21.5539 43.3863 20.5221C42.5843 20.0043 41.888 19.628 41.3839 19.3777C41.1315 19.2524 40.9263 19.1583 40.779 19.0934C40.7053 19.0609 40.646 19.0357 40.6024 19.0175C40.5805 19.0085 40.5626 19.0011 40.5488 18.9955L40.5312 18.9884L40.5247 18.9859L40.522 18.9848C40.5208 18.9844 40.5197 18.9839 39.8321 20.7314L40.5197 18.9839L40.5159 18.9824L39.8286 20.7403C40.5159 18.9824 40.5152 18.9821 40.5145 18.9819L40.5126 18.9811L40.5073 18.9791L40.4912 18.9729L40.4368 18.9521C40.3907 18.9347 40.3253 18.9102 40.2414 18.8797C40.0737 18.8185 39.8321 18.7327 39.5244 18.6294C38.9093 18.423 38.0278 18.1459 36.942 17.8557C34.7762 17.2769 31.7677 16.6377 28.421 16.4119C21.796 15.9649 13.3811 17.1226 7.88823 24.1952L50.4374 48.6274ZM7.32776 54.1925C6.48186 53.2595 5.73085 52.2819 5.36994 51.4378L7.32776 54.1925ZM7.32776 54.1925C8.21821 55.1746 9.36165 56.2663 10.668 57.3465M7.32776 54.1925L10.668 57.3465M10.668 57.3465C13.2609 59.4904 16.6296 61.6988 20.09 62.8746L10.668 57.3465ZM5.10032 50.8766C5.22185 51.1218 5.31531 51.3103 5.36973 51.4373L7.88814 24.1953C2.64718 30.9425 1.7288 37.2437 2.33241 42.196C2.83296 46.3026 4.41409 49.4923 5.10032 50.8766Z"
			fill="#F5A97F" stroke="#F5A97F" stroke-width="3.77497"/>
		<path
			d="M34.5011 54.5603C34.5011 54.5603 27.1131 56.4931 20.7787 54.7004C14.4443 52.9117 8.10585 47.8442 7.18615 46.0555C6.26441 44.2628 -0.705451 38.2167 9.46002 24.9693C19.6255 11.7219 37.6338 19.512 37.6338 19.512C37.6338 19.512 56.9456 26.7113 48.7657 43.7532C48.7657 43.7532 47.3506 46.7174 44.7681 48.2543C42.1856 49.7892 37.8835 52.664 34.5011 54.5603Z"
			fill="#E3B26C"/>
		<path
			d="M34.5031 51.3687C34.5031 51.3687 24.7945 53.1553 18.4601 51.3647C12.1257 49.576 8.54229 46.6849 7.62056 44.8963C6.69883 43.1036 -0.705491 38.2167 9.45998 24.9693C19.6255 11.7219 37.6338 19.512 37.6338 19.512C37.6338 19.512 57.6703 28.4512 47.8947 42.4458C47.8947 42.4458 46.0431 44.3968 43.4626 45.9337C40.8802 47.4666 38.7585 49.911 34.5031 51.3687Z"
			fill="#E6AC59"/>
		<path
			d="M34.0361 48.1C34.0361 48.1 26.51 49.7303 20.1736 47.9376C13.8392 46.1489 10.8771 45.1257 9.95534 43.3371C9.03564 41.5443 -0.705517 38.2167 9.45995 24.9693C19.6254 11.7219 37.6338 19.512 37.6338 19.512C37.6338 19.512 56.8927 27.0504 47.115 41.0469C47.115 41.0469 45.7324 42.8376 43.152 44.3745C40.5695 45.9073 38.2916 46.6403 34.0361 48.1Z"
			fill="#F2AF4E"/>
		<path
			d="M36.1943 44.5938C31.7338 45.3571 24.5203 46.1936 18.1859 44.4029C11.8495 42.6122 -0.705569 38.2167 9.4599 24.9693C19.6254 11.7219 37.6337 19.512 37.6337 19.512C37.6337 19.512 56.781 27.162 46.2298 40.0521C46.2298 40.0521 40.6547 43.8304 36.1943 44.5938Z"
			fill="#F5A97F"/>
		<path
			d="M17.7495 40.842C18.0354 40.842 18.2672 40.6957 18.2672 40.5151C18.2672 40.3346 18.0354 40.1882 17.7495 40.1882C17.4636 40.1882 17.2318 40.3346 17.2318 40.5151C17.2318 40.6957 17.4636 40.842 17.7495 40.842Z"
			fill="#776347"/>
		<path
			d="M23.1338 38.361C23.4197 38.361 23.6515 38.2147 23.6515 38.0342C23.6515 37.8536 23.4197 37.7073 23.1338 37.7073C22.8479 37.7073 22.6161 37.8536 22.6161 38.0342C22.6161 38.2147 22.8479 38.361 23.1338 38.361Z"
			fill="#776347"/>
		<path
			d="M19.656 34.6049C19.942 34.6049 20.1737 34.4586 20.1737 34.278C20.1737 34.0975 19.942 33.9512 19.656 33.9512C19.3701 33.9512 19.1383 34.0975 19.1383 34.278C19.1383 34.4586 19.3701 34.6049 19.656 34.6049Z"
			fill="#776347"/>
		<path
			d="M33.082 33.1737C33.368 33.1737 33.5997 33.0274 33.5997 32.8469C33.5997 32.6664 33.368 32.52 33.082 32.52C32.7961 32.52 32.5643 32.6664 32.5643 32.8469C32.5643 33.0274 32.7961 33.1737 33.082 33.1737Z"
			fill="#776347"/>
		<path
			d="M16.9029 27.426C17.1888 27.426 17.4206 27.2796 17.4206 27.0991C17.4206 26.9186 17.1888 26.7722 16.9029 26.7722C16.6169 26.7722 16.3851 26.9186 16.3851 27.0991C16.3851 27.2796 16.6169 27.426 16.9029 27.426Z"
			fill="#776347"/>
		<path
			d="M26.2584 30.7415C26.5444 30.7415 26.7761 30.5952 26.7761 30.4146C26.7761 30.2341 26.5444 30.0878 26.2584 30.0878C25.9725 30.0878 25.7407 30.2341 25.7407 30.4146C25.7407 30.5952 25.9725 30.7415 26.2584 30.7415Z"
			fill="#776347"/>
		<path
			d="M43.0891 27.284C43.375 27.284 43.6068 27.1376 43.6068 26.9571C43.6068 26.7766 43.375 26.6302 43.0891 26.6302C42.8032 26.6302 42.5714 26.7766 42.5714 26.9571C42.5714 27.1376 42.8032 27.284 43.0891 27.284Z"
			fill="#776347"/>
		<path
			d="M27.0846 26.6098C27.3705 26.6098 27.6023 26.4634 27.6023 26.2829C27.6023 26.1024 27.3705 25.9561 27.0846 25.9561C26.7987 25.9561 26.5669 26.1024 26.5669 26.2829C26.5669 26.4634 26.7987 26.6098 27.0846 26.6098Z"
			fill="#776347"/>
		<path
			d="M24.8939 24.4212C25.1799 24.4212 25.4116 24.2748 25.4116 24.0943C25.4116 23.9138 25.1799 23.7675 24.8939 23.7675C24.608 23.7675 24.3762 23.9138 24.3762 24.0943C24.3762 24.2748 24.608 24.4212 24.8939 24.4212Z"
			fill="#776347"/>
		<path
			d="M13.4373 33.1392C13.7232 33.1392 13.955 32.9929 13.955 32.8123C13.955 32.6318 13.7232 32.4855 13.4373 32.4855C13.1514 32.4855 12.9196 32.6318 12.9196 32.8123C12.9196 32.9929 13.1514 33.1392 13.4373 33.1392Z"
			fill="#776347"/>
		<path
			d="M34.7082 39.5406C34.9941 39.5406 35.2258 39.3942 35.2258 39.2137C35.2258 39.0332 34.9941 38.8868 34.7082 38.8868C34.4222 38.8868 34.1904 39.0332 34.1904 39.2137C34.1904 39.3942 34.4222 39.5406 34.7082 39.5406Z"
			fill="#776347"/>
		<path
			d="M40.8985 36.5093C41.1844 36.5093 41.4162 36.363 41.4162 36.1825C41.4162 36.002 41.1844 35.8556 40.8985 35.8556C40.6125 35.8556 40.3807 36.002 40.3807 36.1825C40.3807 36.363 40.6125 36.5093 40.8985 36.5093Z"
			fill="#776347"/>
		<path
			d="M36.6024 29.8116C36.8884 29.8116 37.1201 29.6652 37.1201 29.4847C37.1201 29.3042 36.8884 29.1578 36.6024 29.1578C36.3165 29.1578 36.0847 29.3042 36.0847 29.4847C36.0847 29.6652 36.3165 29.8116 36.6024 29.8116Z"
			fill="#776347"/>
		<path
			d="M34.3711 22.3565C34.657 22.3565 34.8888 22.2101 34.8888 22.0296C34.8888 21.8491 34.657 21.7028 34.3711 21.7028C34.0852 21.7028 33.8534 21.8491 33.8534 22.0296C33.8534 22.2101 34.0852 22.3565 34.3711 22.3565Z"
			fill="#776347"/>
		<path
			d="M24.8189 32.5626C24.8997 32.5626 24.9651 32.4953 24.9651 32.4123C24.9651 32.3293 24.8997 32.2621 24.8189 32.2621C24.7382 32.2621 24.6727 32.3293 24.6727 32.4123C24.6727 32.4953 24.7382 32.5626 24.8189 32.5626Z"
			fill="#776347"/>
		<path
			d="M28.5444 35.4172C28.6251 35.4172 28.6905 35.3499 28.6905 35.2669C28.6905 35.184 28.6251 35.1167 28.5444 35.1167C28.4636 35.1167 28.3982 35.184 28.3982 35.2669C28.3982 35.3499 28.4636 35.4172 28.5444 35.4172Z"
			fill="#776347"/>
		<path
			d="M29.5433 35.2425C29.624 35.2425 29.6895 35.1752 29.6895 35.0923C29.6895 35.0093 29.624 34.942 29.5433 34.942C29.4626 34.942 29.3971 35.0093 29.3971 35.0923C29.3971 35.1752 29.4626 35.2425 29.5433 35.2425Z"
			fill="#776347"/>
		<path
			d="M29.328 34.3147C29.4088 34.3147 29.4742 34.2474 29.4742 34.1644C29.4742 34.0814 29.4088 34.0142 29.328 34.0142C29.2473 34.0142 29.1819 34.0814 29.1819 34.1644C29.1819 34.2474 29.2473 34.3147 29.328 34.3147Z"
			fill="#776347"/>
		<path
			d="M28.4632 34.3147C28.5439 34.3147 28.6094 34.2474 28.6094 34.1644C28.6094 34.0814 28.5439 34.0142 28.4632 34.0142C28.3825 34.0142 28.317 34.0814 28.317 34.1644C28.317 34.2474 28.3825 34.3147 28.4632 34.3147Z"
			fill="#776347"/>
		<path
			d="M31.0579 41.449C31.1387 41.449 31.2041 41.3818 31.2041 41.2988C31.2041 41.2158 31.1387 41.1486 31.0579 41.1486C30.9772 41.1486 30.9117 41.2158 30.9117 41.2988C30.9117 41.3818 30.9772 41.449 31.0579 41.449Z"
			fill="#776347"/>
		<path
			d="M14.1945 38.3001C14.2753 38.3001 14.3407 38.2329 14.3407 38.1499C14.3407 38.0669 14.2753 37.9996 14.1945 37.9996C14.1138 37.9996 14.0483 38.0669 14.0483 38.1499C14.0483 38.2329 14.1138 38.3001 14.1945 38.3001Z"
			fill="#776347"/>
		<path
			d="M14.7509 38.022C14.8317 38.022 14.8971 37.9548 14.8971 37.8718C14.8971 37.7888 14.8317 37.7216 14.7509 37.7216C14.6702 37.7216 14.6047 37.7888 14.6047 37.8718C14.6047 37.9548 14.6702 38.022 14.7509 38.022Z"
			fill="#776347"/>
		<path
			d="M14.7204 38.763C14.8011 38.763 14.8666 38.6957 14.8666 38.6127C14.8666 38.5298 14.8011 38.4625 14.7204 38.4625C14.6397 38.4625 14.5742 38.5298 14.5742 38.6127C14.5742 38.6957 14.6397 38.763 14.7204 38.763Z"
			fill="#776347"/>
		<path
			d="M9.00724 34.934C9.08798 34.934 9.15343 34.8667 9.15343 34.7838C9.15343 34.7008 9.08798 34.6335 9.00724 34.6335C8.92651 34.6335 8.86108 34.7008 8.86108 34.7838C8.86108 34.8667 8.92651 34.934 9.00724 34.934Z"
			fill="#776347"/>
		<path
			d="M22.1329 22.2104C22.2136 22.2104 22.279 22.1431 22.279 22.0601C22.279 21.9772 22.2136 21.9099 22.1329 21.9099C22.0522 21.9099 21.9867 21.9772 21.9867 22.0601C21.9867 22.1431 22.0522 22.2104 22.1329 22.2104Z"
			fill="#776347"/>
		<path
			d="M28.5566 22.9189C28.6373 22.9189 28.7028 22.8516 28.7028 22.7686C28.7028 22.6857 28.6373 22.6184 28.5566 22.6184C28.4759 22.6184 28.4104 22.6857 28.4104 22.7686C28.4104 22.8516 28.4759 22.9189 28.5566 22.9189Z"
			fill="#776347"/>
		<path
			d="M29.8843 30.238C29.9651 30.238 30.0305 30.1707 30.0305 30.0877C30.0305 30.0048 29.9651 29.9375 29.8843 29.9375C29.8036 29.9375 29.7382 30.0048 29.7382 30.0877C29.7382 30.1707 29.8036 30.238 29.8843 30.238Z"
			fill="#776347"/>
		<path
			d="M28.2459 29.0036C28.3267 29.0036 28.3921 28.9363 28.3921 28.8534C28.3921 28.7704 28.3267 28.7031 28.2459 28.7031C28.1652 28.7031 28.0997 28.7704 28.0997 28.8534C28.0997 28.9363 28.1652 29.0036 28.2459 29.0036Z"
			fill="#776347"/>
		<path
			d="M30.4711 28.0148C30.5519 28.0148 30.6173 27.9476 30.6173 27.8646C30.6173 27.7816 30.5519 27.7144 30.4711 27.7144C30.3904 27.7144 30.325 27.7816 30.325 27.8646C30.325 27.9476 30.3904 28.0148 30.4711 28.0148Z"
			fill="#776347"/>
		<path
			d="M27.7222 27.4586C27.8029 27.4586 27.8684 27.3913 27.8684 27.3083C27.8684 27.2254 27.8029 27.1581 27.7222 27.1581C27.6415 27.1581 27.576 27.2254 27.576 27.3083C27.576 27.3913 27.6415 27.4586 27.7222 27.4586Z"
			fill="#776347"/>
		<path
			d="M28.6784 27.9235C28.7591 27.9235 28.8246 27.8563 28.8246 27.7733C28.8246 27.6903 28.7591 27.623 28.6784 27.623C28.5977 27.623 28.5322 27.6903 28.5322 27.7733C28.5322 27.8563 28.5977 27.9235 28.6784 27.9235Z"
			fill="#776347"/>
		<path
			d="M29.1434 27.0585C29.2241 27.0585 29.2895 26.9912 29.2895 26.9083C29.2895 26.8253 29.2241 26.7581 29.1434 26.7581C29.0626 26.7581 28.9972 26.8253 28.9972 26.9083C28.9972 26.9912 29.0626 27.0585 29.1434 27.0585Z"
			fill="#776347"/>
		<path
			d="M26.364 28.9101C26.4447 28.9101 26.5101 28.8428 26.5101 28.7599C26.5101 28.6769 26.4447 28.6096 26.364 28.6096C26.2832 28.6096 26.2178 28.6769 26.2178 28.7599C26.2178 28.8428 26.2832 28.9101 26.364 28.9101Z"
			fill="#776347"/>
		<path
			d="M26.6094 28.4168C26.6901 28.4168 26.7556 28.3496 26.7556 28.2666C26.7556 28.1836 26.6901 28.1163 26.6094 28.1163C26.5287 28.1163 26.4633 28.1836 26.4633 28.2666C26.4633 28.3496 26.5287 28.4168 26.6094 28.4168Z"
			fill="#776347"/>
		<path
			d="M33.1104 37.149C33.3021 37.149 33.4575 36.9954 33.4575 36.8059C33.4575 36.6164 33.3021 36.4628 33.1104 36.4628C32.9186 36.4628 32.7632 36.6164 32.7632 36.8059C32.7632 36.9954 32.9186 37.149 33.1104 37.149Z"
			fill="#776347"/>
		<path
			d="M23.7063 39.6036C23.8981 39.6036 24.0535 39.4499 24.0535 39.2605C24.0535 39.071 23.8981 38.9174 23.7063 38.9174C23.5146 38.9174 23.3591 39.071 23.3591 39.2605C23.3591 39.4499 23.5146 39.6036 23.7063 39.6036Z"
			fill="#776347"/>
		<path
			d="M24.0474 38.6148C24.2391 38.6148 24.3946 38.4612 24.3946 38.2717C24.3946 38.0822 24.2391 37.9286 24.0474 37.9286C23.8556 37.9286 23.7002 38.0822 23.7002 38.2717C23.7002 38.4612 23.8556 38.6148 24.0474 38.6148Z"
			fill="#776347"/>
		<path
			d="M23.3063 37.4738C23.498 37.4738 23.6534 37.3202 23.6534 37.1307C23.6534 36.9412 23.498 36.7876 23.3063 36.7876C23.1145 36.7876 22.9591 36.9412 22.9591 37.1307C22.9591 37.3202 23.1145 37.4738 23.3063 37.4738Z"
			fill="#776347"/>
		<path
			d="M38.4682 33.2732C38.66 33.2732 38.8154 33.1195 38.8154 32.93C38.8154 32.7405 38.66 32.5869 38.4682 32.5869C38.2765 32.5869 38.1211 32.7405 38.1211 32.93C38.1211 33.1195 38.2765 33.2732 38.4682 33.2732Z"
			fill="#776347"/>
		<path
			d="M33.7134 26.2018C33.9051 26.2018 34.0606 26.0482 34.0606 25.8587C34.0606 25.6692 33.9051 25.5156 33.7134 25.5156C33.5217 25.5156 33.3662 25.6692 33.3662 25.8587C33.3662 26.0482 33.5217 26.2018 33.7134 26.2018Z"
			fill="#776347"/>
		<path
			d="M14.1032 22.6731C14.184 22.6731 14.2494 22.6059 14.2494 22.5229C14.2494 22.44 14.184 22.3727 14.1032 22.3727C14.0225 22.3727 13.957 22.44 13.957 22.5229C13.957 22.6059 14.0225 22.6731 14.1032 22.6731Z"
			fill="#776347"/>
		<path
			d="M13.6403 23.5686C13.7211 23.5686 13.7865 23.5013 13.7865 23.4183C13.7865 23.3353 13.7211 23.2681 13.6403 23.2681C13.5596 23.2681 13.4941 23.3353 13.4941 23.4183C13.4941 23.5013 13.5596 23.5686 13.6403 23.5686Z"
			fill="#776347"/>
		<path
			d="M7.4318 33.728C7.51254 33.728 7.578 33.6607 7.578 33.5777C7.578 33.4948 7.51254 33.4275 7.4318 33.4275C7.35107 33.4275 7.28564 33.4948 7.28564 33.5777C7.28564 33.6607 7.35107 33.728 7.4318 33.728Z"
			fill="#776347"/>
		<path
			d="M41.8466 41.3454C41.9273 41.3454 41.9928 41.2781 41.9928 41.1952C41.9928 41.1122 41.9273 41.0449 41.8466 41.0449C41.7659 41.0449 41.7004 41.1122 41.7004 41.1952C41.7004 41.2781 41.7659 41.3454 41.8466 41.3454Z"
			fill="#776347"/>
		<path
			d="M40.5086 41.7901C40.5893 41.7901 40.6548 41.7228 40.6548 41.6398C40.6548 41.5569 40.5893 41.4896 40.5086 41.4896C40.4279 41.4896 40.3624 41.5569 40.3624 41.6398C40.3624 41.7228 40.4279 41.7901 40.5086 41.7901Z"
			fill="#776347"/>
		<path
			d="M41.3005 40.9496C41.3812 40.9496 41.4467 40.8824 41.4467 40.7994C41.4467 40.7164 41.3812 40.6492 41.3005 40.6492C41.2198 40.6492 41.1543 40.7164 41.1543 40.7994C41.1543 40.8824 41.2198 40.9496 41.3005 40.9496Z"
			fill="#776347"/>
		<path
			d="M43.9764 38.1742C44.0571 38.1742 44.1226 38.1069 44.1226 38.0239C44.1226 37.9409 44.0571 37.8737 43.9764 37.8737C43.8956 37.8737 43.8302 37.9409 43.8302 38.0239C43.8302 38.1069 43.8956 38.1742 43.9764 38.1742Z"
			fill="#776347"/>
		<mask id="path-54-outside-1_579_497" maskUnits="userSpaceOnUse" x="49.641" y="0.594997"
					width="169.747" height="62.2566" fill="black">
			<rect fill="white" x="49.641" y="0.594997" width="169.747" height="62.2566"/>
			<path
				d="M64.9076 46.5647C65.2693 46.4878 65.4904 46.1883 65.4434 45.8196L64.2441 38.2186C65.438 38.3443 66.7134 38.264 67.9821 37.9945C73.6865 36.7846 76.8447 32.4887 75.6802 26.994C74.5156 21.4993 68.928 18.6455 63.6131 19.7717C62.3464 20.0409 61.0683 20.5643 59.8728 21.3222L54.774 22.1187L54.714 22.1308C54.4123 22.1956 54.1983 22.5251 54.2383 22.8639L58.0842 46.9682L58.0985 47.03C58.1684 47.3617 58.4978 47.5757 58.7995 47.5109L64.9076 46.5647ZM62.3768 26.4384C62.8589 26.1781 63.3533 25.9798 63.8347 25.8767C65.9487 25.429 67.825 26.5456 68.2674 28.6275C68.9702 31.9484 66.0731 32.5639 65.8313 32.6146C64.986 32.7928 64.0604 32.7383 63.3251 32.5464L62.3768 26.4384ZM101.18 32.3087C101.246 32.1879 101.281 32.0966 101.283 32.0352C101.297 31.7257 100.965 31.5262 100.663 31.3605C99.7007 30.7934 99.418 29.4526 99.4965 27.6023C99.5832 25.5676 100.127 22.9037 100.68 20.1166L100.687 19.9629C100.701 19.5922 100.503 19.1834 99.7037 19.0877L94.3892 18.398L94.2354 18.3909C93.8645 18.3748 93.5849 18.4558 93.3893 18.663C92.2099 18.089 90.7128 17.6855 89.1718 17.6189C83.0677 17.3589 80.2204 22.5827 80.0611 26.2814C79.8506 31.2461 84.1216 35.3821 89.2708 35.6007C90.8445 35.6681 92.5243 35.3679 94.1641 34.6044C95.6435 36.1196 97.7809 36.7041 98.0882 36.7163C98.4898 36.7333 98.8103 36.4687 99.1102 35.9573L101.18 32.3087ZM92.2416 29.6729C91.5186 29.9512 90.8363 30.0458 90.2503 30.0206C88.2463 29.9349 87.106 28.4042 87.1805 26.6768C87.2461 25.1053 88.4054 23.2696 90.348 23.3532C91.2433 23.3904 92.0572 23.858 92.3999 24.491C92.3001 25.413 92.2341 26.2439 92.1998 27.0451C92.1586 28.002 92.1836 28.8667 92.2416 29.6729ZM123.915 31.4252C124.761 25.5911 120.61 21.1208 114.409 20.2216C113.31 20.06 112.163 20.0193 110.936 20.0908L107.542 19.4093L107.482 19.401C107.176 19.3561 106.86 19.5916 106.781 19.9239L103.649 35.6839C103.596 36.0503 103.8 36.3605 104.164 36.4446L110.226 37.6371L110.288 37.6452C110.593 37.6903 110.908 37.4548 110.953 37.1504L113.144 26.1485C115.355 26.595 116.718 28.1648 116.25 31.3719L116.101 32.4091C115.311 37.8458 119.961 40.175 120.512 40.2547C120.787 40.2946 121.105 40.2465 121.446 40.0472C121.446 40.0472 124.785 38.3184 124.793 38.2564C125.03 38.1348 125.147 37.966 125.174 37.7818C125.222 37.4464 124.963 37.0969 124.8 36.9172C123.717 35.5746 123.519 34.1417 123.769 32.4314L123.915 31.4252ZM148.221 36.7162C148.286 36.6241 148.287 36.5321 148.29 36.44C148.297 36.1618 147.96 35.9995 147.626 35.837C146.373 35.2499 146.05 33.3602 146.11 30.8303C146.163 28.7011 147.464 15.8599 147.535 15.4611L147.538 15.369C147.547 14.9355 147.311 14.5286 146.446 14.5088L141.113 14.2861C140.495 14.2702 139.994 14.5671 139.95 15.0917L139.193 23.345C138.093 22.9181 136.773 22.6071 135.445 22.5743C129.338 22.4268 126.587 27.6369 126.496 31.4023C126.373 36.3685 130.689 40.4245 135.842 40.551C137.539 40.5917 139.339 40.204 141.09 39.2886C142.774 41.0588 145.42 41.4008 145.42 41.4008C145.884 41.4116 146.199 41.1108 146.462 40.5317L148.221 36.7162ZM139.015 34.4234C138.143 34.8022 137.366 34.9695 136.689 34.9534C134.713 34.9037 133.546 33.394 133.588 31.6678C133.63 29.9395 134.845 28.2717 136.696 28.3155C137.62 28.3396 138.473 28.7911 138.799 29.4176C138.751 31.3913 138.833 33.0296 139.015 34.4234ZM159.882 44.1586C160.76 44.3342 161.238 43.9886 161.576 43.553C162.235 42.6139 163.433 40.7131 163.493 40.4113C163.596 39.895 163.136 39.5206 162.712 39.4365L162.651 39.4241C162.434 39.4132 162.192 39.3638 161.98 39.3217C158.198 38.5668 157.106 35.8315 157.535 33.6831C157.911 31.8073 159.373 30.7779 160.826 31.0675C162.098 31.3201 162.479 32.4042 162.425 32.6769C162.341 33.0995 162.116 33.1178 160.47 33.1678C160.059 33.1802 159.786 33.283 159.719 33.6161C159.697 33.7367 159.878 35.8181 160.042 36.8893C160.091 37.2761 160.201 37.5182 160.684 37.6149C162.27 37.8687 164.577 37.9833 166.095 37.7828C168 37.5335 168.805 36.4983 169.084 35.1055C169.283 34.1084 170.283 27.3529 162.779 25.8554C155.88 24.4791 151.916 28.4085 151.054 32.7364C150.136 37.3351 152.65 42.7156 159.52 44.0866L159.882 44.1586ZM172.091 46.3272C176.22 46.5599 181.847 44.9007 182.053 41.2646C182.12 40.0949 181.582 38.6734 180.251 37.0516C179.155 35.692 178.724 35.08 178.754 34.5567C178.79 33.941 179.532 33.365 181.381 33.4682L181.504 33.4763C181.904 33.4976 182.251 33.3936 182.27 33.0551C182.275 32.9627 182.28 32.8704 182.227 32.7431L181.042 29.0908C180.857 28.5237 180.557 28.3843 179.355 28.3166C175.319 28.0869 170.193 29.6512 169.995 33.1334C169.928 34.303 170.409 35.6609 171.676 37.2769L172.456 38.2498C172.857 38.828 173.229 39.3439 173.205 39.7441C173.165 40.4826 172.253 41.298 170.433 41.2245C170.064 41.2042 169.445 41.2313 169.417 41.6931C169.415 41.7545 169.439 41.8501 169.465 41.9434L170.619 45.5948C170.774 46.1281 171.076 46.2694 171.753 46.3079L172.091 46.3272ZM204.233 37.9025C204.266 37.7686 204.275 37.6718 204.261 37.61C204.192 37.3108 203.818 37.2073 203.484 37.1264C202.402 36.8365 201.773 35.622 201.356 33.8171C200.895 31.833 200.712 29.1193 200.498 26.2861L200.465 26.1364C200.38 25.7756 200.081 25.4321 199.285 25.5544L193.978 26.3064L193.828 26.3417C193.467 26.4247 193.217 26.5782 193.085 26.8301C191.796 26.5914 190.245 26.6014 188.743 26.9492C182.79 28.3268 181.438 34.1195 182.273 37.7271C183.393 42.5673 188.613 45.415 193.634 44.2528C195.168 43.8977 196.708 43.1605 198.083 41.9868C199.913 43.0508 202.13 43.0459 202.429 42.9752C202.82 42.8852 203.06 42.545 203.21 41.9709L204.233 37.9025ZM194.915 37.7468C194.294 38.2067 193.66 38.4802 193.09 38.6126C191.135 39.0647 189.629 37.8928 189.239 36.2098C188.884 34.6762 189.511 32.5998 191.405 32.1598C192.277 31.9585 193.188 32.192 193.686 32.7095C193.835 33.6251 193.994 34.4437 194.174 35.2255C194.389 36.1589 194.645 36.9862 194.915 37.7468ZM214.105 37.8906C214.423 37.773 214.588 37.4159 214.468 37.0993L205.703 13.4595C205.574 13.1112 205.217 12.9469 204.9 13.0662L199.084 15.2218C198.765 15.3393 198.601 15.6964 198.73 16.0447L207.495 39.6845C207.615 40.0031 207.97 40.1657 208.289 40.0481L214.105 37.8906Z"/>
		</mask>
		<path
			d="M64.9076 46.5647C65.2693 46.4878 65.4904 46.1883 65.4434 45.8196L64.2441 38.2186C65.438 38.3443 66.7134 38.264 67.9821 37.9945C73.6865 36.7846 76.8447 32.4887 75.6802 26.994C74.5156 21.4993 68.928 18.6455 63.6131 19.7717C62.3464 20.0409 61.0683 20.5643 59.8728 21.3222L54.774 22.1187L54.714 22.1308C54.4123 22.1956 54.1983 22.5251 54.2383 22.8639L58.0842 46.9682L58.0985 47.03C58.1684 47.3617 58.4978 47.5757 58.7995 47.5109L64.9076 46.5647ZM62.3768 26.4384C62.8589 26.1781 63.3533 25.9798 63.8347 25.8767C65.9487 25.429 67.825 26.5456 68.2674 28.6275C68.9702 31.9484 66.0731 32.5639 65.8313 32.6146C64.986 32.7928 64.0604 32.7383 63.3251 32.5464L62.3768 26.4384ZM101.18 32.3087C101.246 32.1879 101.281 32.0966 101.283 32.0352C101.297 31.7257 100.965 31.5262 100.663 31.3605C99.7007 30.7934 99.418 29.4526 99.4965 27.6023C99.5832 25.5676 100.127 22.9037 100.68 20.1166L100.687 19.9629C100.701 19.5922 100.503 19.1834 99.7037 19.0877L94.3892 18.398L94.2354 18.3909C93.8645 18.3748 93.5849 18.4558 93.3893 18.663C92.2099 18.089 90.7128 17.6855 89.1718 17.6189C83.0677 17.3589 80.2204 22.5827 80.0611 26.2814C79.8506 31.2461 84.1216 35.3821 89.2708 35.6007C90.8445 35.6681 92.5243 35.3679 94.1641 34.6044C95.6435 36.1196 97.7809 36.7041 98.0882 36.7163C98.4898 36.7333 98.8103 36.4687 99.1102 35.9573L101.18 32.3087ZM92.2416 29.6729C91.5186 29.9512 90.8363 30.0458 90.2503 30.0206C88.2463 29.9349 87.106 28.4042 87.1805 26.6768C87.2461 25.1053 88.4054 23.2696 90.348 23.3532C91.2433 23.3904 92.0572 23.858 92.3999 24.491C92.3001 25.413 92.2341 26.2439 92.1998 27.0451C92.1586 28.002 92.1836 28.8667 92.2416 29.6729ZM123.915 31.4252C124.761 25.5911 120.61 21.1208 114.409 20.2216C113.31 20.06 112.163 20.0193 110.936 20.0908L107.542 19.4093L107.482 19.401C107.176 19.3561 106.86 19.5916 106.781 19.9239L103.649 35.6839C103.596 36.0503 103.8 36.3605 104.164 36.4446L110.226 37.6371L110.288 37.6452C110.593 37.6903 110.908 37.4548 110.953 37.1504L113.144 26.1485C115.355 26.595 116.718 28.1648 116.25 31.3719L116.101 32.4091C115.311 37.8458 119.961 40.175 120.512 40.2547C120.787 40.2946 121.105 40.2465 121.446 40.0472C121.446 40.0472 124.785 38.3184 124.793 38.2564C125.03 38.1348 125.147 37.966 125.174 37.7818C125.222 37.4464 124.963 37.0969 124.8 36.9172C123.717 35.5746 123.519 34.1417 123.769 32.4314L123.915 31.4252ZM148.221 36.7162C148.286 36.6241 148.287 36.5321 148.29 36.44C148.297 36.1618 147.96 35.9995 147.626 35.837C146.373 35.2499 146.05 33.3602 146.11 30.8303C146.163 28.7011 147.464 15.8599 147.535 15.4611L147.538 15.369C147.547 14.9355 147.311 14.5286 146.446 14.5088L141.113 14.2861C140.495 14.2702 139.994 14.5671 139.95 15.0917L139.193 23.345C138.093 22.9181 136.773 22.6071 135.445 22.5743C129.338 22.4268 126.587 27.6369 126.496 31.4023C126.373 36.3685 130.689 40.4245 135.842 40.551C137.539 40.5917 139.339 40.204 141.09 39.2886C142.774 41.0588 145.42 41.4008 145.42 41.4008C145.884 41.4116 146.199 41.1108 146.462 40.5317L148.221 36.7162ZM139.015 34.4234C138.143 34.8022 137.366 34.9695 136.689 34.9534C134.713 34.9037 133.546 33.394 133.588 31.6678C133.63 29.9395 134.845 28.2717 136.696 28.3155C137.62 28.3396 138.473 28.7911 138.799 29.4176C138.751 31.3913 138.833 33.0296 139.015 34.4234ZM159.882 44.1586C160.76 44.3342 161.238 43.9886 161.576 43.553C162.235 42.6139 163.433 40.7131 163.493 40.4113C163.596 39.895 163.136 39.5206 162.712 39.4365L162.651 39.4241C162.434 39.4132 162.192 39.3638 161.98 39.3217C158.198 38.5668 157.106 35.8315 157.535 33.6831C157.911 31.8073 159.373 30.7779 160.826 31.0675C162.098 31.3201 162.479 32.4042 162.425 32.6769C162.341 33.0995 162.116 33.1178 160.47 33.1678C160.059 33.1802 159.786 33.283 159.719 33.6161C159.697 33.7367 159.878 35.8181 160.042 36.8893C160.091 37.2761 160.201 37.5182 160.684 37.6149C162.27 37.8687 164.577 37.9833 166.095 37.7828C168 37.5335 168.805 36.4983 169.084 35.1055C169.283 34.1084 170.283 27.3529 162.779 25.8554C155.88 24.4791 151.916 28.4085 151.054 32.7364C150.136 37.3351 152.65 42.7156 159.52 44.0866L159.882 44.1586ZM172.091 46.3272C176.22 46.5599 181.847 44.9007 182.053 41.2646C182.12 40.0949 181.582 38.6734 180.251 37.0516C179.155 35.692 178.724 35.08 178.754 34.5567C178.79 33.941 179.532 33.365 181.381 33.4682L181.504 33.4763C181.904 33.4976 182.251 33.3936 182.27 33.0551C182.275 32.9627 182.28 32.8704 182.227 32.7431L181.042 29.0908C180.857 28.5237 180.557 28.3843 179.355 28.3166C175.319 28.0869 170.193 29.6512 169.995 33.1334C169.928 34.303 170.409 35.6609 171.676 37.2769L172.456 38.2498C172.857 38.828 173.229 39.3439 173.205 39.7441C173.165 40.4826 172.253 41.298 170.433 41.2245C170.064 41.2042 169.445 41.2313 169.417 41.6931C169.415 41.7545 169.439 41.8501 169.465 41.9434L170.619 45.5948C170.774 46.1281 171.076 46.2694 171.753 46.3079L172.091 46.3272ZM204.233 37.9025C204.266 37.7686 204.275 37.6718 204.261 37.61C204.192 37.3108 203.818 37.2073 203.484 37.1264C202.402 36.8365 201.773 35.622 201.356 33.8171C200.895 31.833 200.712 29.1193 200.498 26.2861L200.465 26.1364C200.38 25.7756 200.081 25.4321 199.285 25.5544L193.978 26.3064L193.828 26.3417C193.467 26.4247 193.217 26.5782 193.085 26.8301C191.796 26.5914 190.245 26.6014 188.743 26.9492C182.79 28.3268 181.438 34.1195 182.273 37.7271C183.393 42.5673 188.613 45.415 193.634 44.2528C195.168 43.8977 196.708 43.1605 198.083 41.9868C199.913 43.0508 202.13 43.0459 202.429 42.9752C202.82 42.8852 203.06 42.545 203.21 41.9709L204.233 37.9025ZM194.915 37.7468C194.294 38.2067 193.66 38.4802 193.09 38.6126C191.135 39.0647 189.629 37.8928 189.239 36.2098C188.884 34.6762 189.511 32.5998 191.405 32.1598C192.277 31.9585 193.188 32.192 193.686 32.7095C193.835 33.6251 193.994 34.4437 194.174 35.2255C194.389 36.1589 194.645 36.9862 194.915 37.7468ZM214.105 37.8906C214.423 37.773 214.588 37.4159 214.468 37.0993L205.703 13.4595C205.574 13.1112 205.217 12.9469 204.9 13.0662L199.084 15.2218C198.765 15.3393 198.601 15.6964 198.73 16.0447L207.495 39.6845C207.615 40.0031 207.97 40.1657 208.289 40.0481L214.105 37.8906Z"
			fill="#F5A97F"/>
		<path
			d="M64.9076 46.5647C65.2693 46.4878 65.4904 46.1883 65.4434 45.8196L64.2441 38.2186C65.438 38.3443 66.7134 38.264 67.9821 37.9945C73.6865 36.7846 76.8447 32.4887 75.6802 26.994C74.5156 21.4993 68.928 18.6455 63.6131 19.7717C62.3464 20.0409 61.0683 20.5643 59.8728 21.3222L54.774 22.1187L54.714 22.1308C54.4123 22.1956 54.1983 22.5251 54.2383 22.8639L58.0842 46.9682L58.0985 47.03C58.1684 47.3617 58.4978 47.5757 58.7995 47.5109L64.9076 46.5647ZM62.3768 26.4384C62.8589 26.1781 63.3533 25.9798 63.8347 25.8767C65.9487 25.429 67.825 26.5456 68.2674 28.6275C68.9702 31.9484 66.0731 32.5639 65.8313 32.6146C64.986 32.7928 64.0604 32.7383 63.3251 32.5464L62.3768 26.4384ZM101.18 32.3087C101.246 32.1879 101.281 32.0966 101.283 32.0352C101.297 31.7257 100.965 31.5262 100.663 31.3605C99.7007 30.7934 99.418 29.4526 99.4965 27.6023C99.5832 25.5676 100.127 22.9037 100.68 20.1166L100.687 19.9629C100.701 19.5922 100.503 19.1834 99.7037 19.0877L94.3892 18.398L94.2354 18.3909C93.8645 18.3748 93.5849 18.4558 93.3893 18.663C92.2099 18.089 90.7128 17.6855 89.1718 17.6189C83.0677 17.3589 80.2204 22.5827 80.0611 26.2814C79.8506 31.2461 84.1216 35.3821 89.2708 35.6007C90.8445 35.6681 92.5243 35.3679 94.1641 34.6044C95.6435 36.1196 97.7809 36.7041 98.0882 36.7163C98.4898 36.7333 98.8103 36.4687 99.1102 35.9573L101.18 32.3087ZM92.2416 29.6729C91.5186 29.9512 90.8363 30.0458 90.2503 30.0206C88.2463 29.9349 87.106 28.4042 87.1805 26.6768C87.2461 25.1053 88.4054 23.2696 90.348 23.3532C91.2433 23.3904 92.0572 23.858 92.3999 24.491C92.3001 25.413 92.2341 26.2439 92.1998 27.0451C92.1586 28.002 92.1836 28.8667 92.2416 29.6729ZM123.915 31.4252C124.761 25.5911 120.61 21.1208 114.409 20.2216C113.31 20.06 112.163 20.0193 110.936 20.0908L107.542 19.4093L107.482 19.401C107.176 19.3561 106.86 19.5916 106.781 19.9239L103.649 35.6839C103.596 36.0503 103.8 36.3605 104.164 36.4446L110.226 37.6371L110.288 37.6452C110.593 37.6903 110.908 37.4548 110.953 37.1504L113.144 26.1485C115.355 26.595 116.718 28.1648 116.25 31.3719L116.101 32.4091C115.311 37.8458 119.961 40.175 120.512 40.2547C120.787 40.2946 121.105 40.2465 121.446 40.0472C121.446 40.0472 124.785 38.3184 124.793 38.2564C125.03 38.1348 125.147 37.966 125.174 37.7818C125.222 37.4464 124.963 37.0969 124.8 36.9172C123.717 35.5746 123.519 34.1417 123.769 32.4314L123.915 31.4252ZM148.221 36.7162C148.286 36.6241 148.287 36.5321 148.29 36.44C148.297 36.1618 147.96 35.9995 147.626 35.837C146.373 35.2499 146.05 33.3602 146.11 30.8303C146.163 28.7011 147.464 15.8599 147.535 15.4611L147.538 15.369C147.547 14.9355 147.311 14.5286 146.446 14.5088L141.113 14.2861C140.495 14.2702 139.994 14.5671 139.95 15.0917L139.193 23.345C138.093 22.9181 136.773 22.6071 135.445 22.5743C129.338 22.4268 126.587 27.6369 126.496 31.4023C126.373 36.3685 130.689 40.4245 135.842 40.551C137.539 40.5917 139.339 40.204 141.09 39.2886C142.774 41.0588 145.42 41.4008 145.42 41.4008C145.884 41.4116 146.199 41.1108 146.462 40.5317L148.221 36.7162ZM139.015 34.4234C138.143 34.8022 137.366 34.9695 136.689 34.9534C134.713 34.9037 133.546 33.394 133.588 31.6678C133.63 29.9395 134.845 28.2717 136.696 28.3155C137.62 28.3396 138.473 28.7911 138.799 29.4176C138.751 31.3913 138.833 33.0296 139.015 34.4234ZM159.882 44.1586C160.76 44.3342 161.238 43.9886 161.576 43.553C162.235 42.6139 163.433 40.7131 163.493 40.4113C163.596 39.895 163.136 39.5206 162.712 39.4365L162.651 39.4241C162.434 39.4132 162.192 39.3638 161.98 39.3217C158.198 38.5668 157.106 35.8315 157.535 33.6831C157.911 31.8073 159.373 30.7779 160.826 31.0675C162.098 31.3201 162.479 32.4042 162.425 32.6769C162.341 33.0995 162.116 33.1178 160.47 33.1678C160.059 33.1802 159.786 33.283 159.719 33.6161C159.697 33.7367 159.878 35.8181 160.042 36.8893C160.091 37.2761 160.201 37.5182 160.684 37.6149C162.27 37.8687 164.577 37.9833 166.095 37.7828C168 37.5335 168.805 36.4983 169.084 35.1055C169.283 34.1084 170.283 27.3529 162.779 25.8554C155.88 24.4791 151.916 28.4085 151.054 32.7364C150.136 37.3351 152.65 42.7156 159.52 44.0866L159.882 44.1586ZM172.091 46.3272C176.22 46.5599 181.847 44.9007 182.053 41.2646C182.12 40.0949 181.582 38.6734 180.251 37.0516C179.155 35.692 178.724 35.08 178.754 34.5567C178.79 33.941 179.532 33.365 181.381 33.4682L181.504 33.4763C181.904 33.4976 182.251 33.3936 182.27 33.0551C182.275 32.9627 182.28 32.8704 182.227 32.7431L181.042 29.0908C180.857 28.5237 180.557 28.3843 179.355 28.3166C175.319 28.0869 170.193 29.6512 169.995 33.1334C169.928 34.303 170.409 35.6609 171.676 37.2769L172.456 38.2498C172.857 38.828 173.229 39.3439 173.205 39.7441C173.165 40.4826 172.253 41.298 170.433 41.2245C170.064 41.2042 169.445 41.2313 169.417 41.6931C169.415 41.7545 169.439 41.8501 169.465 41.9434L170.619 45.5948C170.774 46.1281 171.076 46.2694 171.753 46.3079L172.091 46.3272ZM204.233 37.9025C204.266 37.7686 204.275 37.6718 204.261 37.61C204.192 37.3108 203.818 37.2073 203.484 37.1264C202.402 36.8365 201.773 35.622 201.356 33.8171C200.895 31.833 200.712 29.1193 200.498 26.2861L200.465 26.1364C200.38 25.7756 200.081 25.4321 199.285 25.5544L193.978 26.3064L193.828 26.3417C193.467 26.4247 193.217 26.5782 193.085 26.8301C191.796 26.5914 190.245 26.6014 188.743 26.9492C182.79 28.3268 181.438 34.1195 182.273 37.7271C183.393 42.5673 188.613 45.415 193.634 44.2528C195.168 43.8977 196.708 43.1605 198.083 41.9868C199.913 43.0508 202.13 43.0459 202.429 42.9752C202.82 42.8852 203.06 42.545 203.21 41.9709L204.233 37.9025ZM194.915 37.7468C194.294 38.2067 193.66 38.4802 193.09 38.6126C191.135 39.0647 189.629 37.8928 189.239 36.2098C188.884 34.6762 189.511 32.5998 191.405 32.1598C192.277 31.9585 193.188 32.192 193.686 32.7095C193.835 33.6251 193.994 34.4437 194.174 35.2255C194.389 36.1589 194.645 36.9862 194.915 37.7468ZM214.105 37.8906C214.423 37.773 214.588 37.4159 214.468 37.0993L205.703 13.4595C205.574 13.1112 205.217 12.9469 204.9 13.0662L199.084 15.2218C198.765 15.3393 198.601 15.6964 198.73 16.0447L207.495 39.6845C207.615 40.0031 207.97 40.1657 208.289 40.0481L214.105 37.8906Z"
			stroke="#F5A97F" stroke-width="7.54995" mask="url(#path-54-outside-1_579_497)"/>
		<path
			d="M61.1292 49.7178C58.7881 50.3234 57.4132 52.7115 58.0111 55.0152C58.6134 57.3356 60.9802 58.7121 63.3013 58.1124C65.6163 57.5152 67.0045 55.1521 66.4048 52.8393L66.4047 52.8389C65.8105 50.5497 63.4623 49.1131 61.1292 49.7178ZM61.1292 49.7178L61.6019 51.5452L61.1277 49.7182C61.1282 49.7181 61.1287 49.718 61.1292 49.7178ZM84.1814 49.6123C84.1704 49.1776 84.1956 48.7441 84.2559 48.3173C84.5103 46.5078 85.4168 44.698 87.0367 43.4401C88.6835 42.1612 90.9054 41.5773 93.5394 41.949C96.3468 42.3443 97.9716 43.7922 98.7943 45.4426C99.1141 45.105 99.4779 44.9239 99.7497 44.8228C100.05 44.7096 100.859 44.4345 101.632 44.1934C102.027 44.0703 102.44 43.9477 102.791 43.8557C102.965 43.8101 103.146 43.7663 103.313 43.7337L103.318 43.7327C103.426 43.7115 103.727 43.6527 104.045 43.6734L104.051 43.6737C105.029 43.7403 105.848 44.3138 106.22 45.1863C106.231 45.2127 106.242 45.2393 106.252 45.2662L106.68 46.4116C106.684 46.4029 106.688 46.3942 106.692 46.3855C106.907 45.9233 107.072 45.5667 107.152 45.4046C107.162 45.3853 107.172 45.3661 107.182 45.3472C107.389 44.9638 107.711 44.5845 108.181 44.3253C108.651 44.0662 109.139 43.9989 109.561 44.0278M84.1814 49.6123L109.432 45.9109M84.1814 49.6123C83.9996 49.3849 83.805 49.2327 83.6824 49.1483C83.54 49.0502 83.3887 48.9704 83.269 48.9132C83.267 48.9074 83.2651 48.9014 83.2631 48.8952C83.1733 48.6166 83.1019 48.1353 83.0829 47.3948C83.0679 46.8067 83.1561 44.5243 83.2599 42.2448C83.3107 41.1299 83.3635 40.0491 83.4056 39.232C83.4331 38.6983 83.4539 38.324 83.4655 38.1161C83.4731 37.979 83.4767 37.9142 83.4755 37.9237C83.4872 37.8295 83.4916 37.7345 83.489 37.6397L83.4875 37.5877C83.4875 37.5865 83.4874 37.5852 83.4874 37.584L83.4874 37.5827L81.6006 37.6359C81.5936 37.3611 81.4321 37.112 80.8846 37.1258M84.1814 49.6123L80.8846 37.1258M109.561 44.0278L109.432 45.9109M109.561 44.0278C109.559 44.0277 109.558 44.0276 109.556 44.0275L109.432 45.9109M109.561 44.0278C109.886 44.0497 110.222 44.1218 110.57 44.2702M109.432 45.9109C109.568 45.9198 109.703 45.9491 109.855 46.0176M110.57 44.2702L110.529 44.2544L109.855 46.0176M110.57 44.2702L113.078 45.2281M110.57 44.2702C110.591 44.279 110.611 44.2881 110.632 44.2975L109.855 46.0176M109.855 46.0176L113.078 45.2281M113.078 45.2281L112.409 46.9931L113.083 45.2298L113.081 45.2293C113.08 45.2289 113.079 45.2285 113.078 45.2281ZM99.3296 50.3066C99.3882 50.0978 99.4293 49.8915 99.4573 49.6925L99.4575 49.6914C99.4958 49.4188 99.572 48.7083 99.4731 47.8122C99.4726 47.8078 99.4721 47.8034 99.4716 47.799C99.4423 47.5371 99.398 47.2596 99.3334 46.9726M99.3296 50.3066L98.1701 46.8598C98.1695 46.8664 98.169 46.873 98.1685 46.8796M99.3296 50.3066L99.0303 49.6323L99.0298 49.6313L98.4282 48.2761L98.4154 48.2465C98.2545 47.8668 98.1291 47.4017 98.1685 46.8796M99.3296 50.3066L98.1685 46.8796M99.3334 46.9726L100.051 47.0165L99.3297 46.9564C99.3309 46.9618 99.3321 46.9672 99.3334 46.9726ZM99.3334 46.9726L98.1671 46.9013C98.1675 46.8941 98.168 46.8869 98.1685 46.8796M80.8846 37.1258L80.8662 35.2384L80.8544 35.2386C80.8485 35.2387 80.8427 35.2388 80.8369 35.239L80.8846 37.1258ZM93.5998 54.2717C93.6259 54.2724 93.6521 54.2728 93.6785 54.2729L93.6789 54.1308L93.5998 54.2717ZM93.5998 54.2717C93.4409 54.5526 93.2802 54.8256 93.1525 55.0297C92.9567 55.3165 92.666 55.5517 92.1072 55.4728L93.5998 54.2717ZM91.4314 47.8614C91.4423 47.787 91.4915 47.4981 91.7092 47.191C91.7925 47.1745 91.8773 47.1647 91.963 47.162L92.0323 47.9495L92.0329 47.9565L92.0669 48.3427L92.0419 48.5195C91.8058 48.5456 91.6535 48.6226 91.6253 48.8244C91.625 48.8271 91.6248 48.8313 91.6249 48.8367C91.6212 48.8323 91.6175 48.8276 91.6138 48.8229C91.6138 48.8229 91.6138 48.8228 91.6137 48.8228C91.5757 48.7742 91.5373 48.7111 91.5034 48.6261C91.4848 48.5794 91.4599 48.5066 91.4408 48.4084C91.4266 48.3352 91.3927 48.1363 91.43 47.8715C91.4304 47.8681 91.4309 47.8648 91.4314 47.8614ZM91.4314 47.8614C91.4308 47.8652 91.4304 47.8684 91.43 47.8711L91.4314 47.8614ZM92.2321 47.1765L92.1208 47.9624L92.1199 47.9688L92.0673 48.3396L92.0352 47.9568L92.0346 47.9498L91.9684 47.1618C92.0555 47.1593 92.1436 47.1641 92.2321 47.1765ZM92.2321 47.1765L92.122 47.9626L92.1211 47.9689L92.068 48.3476L92.0821 48.5156M92.2321 47.1765C93.0434 47.2914 93.3244 47.9611 93.2989 48.1351C93.2607 48.4062 93.1197 48.4243 92.0821 48.5156M92.0821 48.5156L92.0676 48.3505L92.044 48.5193C92.0565 48.518 92.0692 48.5167 92.0821 48.5156ZM106.798 58.7886L106.8 58.7887L106.926 56.9054L106.797 58.7885C106.797 58.7885 106.798 58.7885 106.798 58.7886ZM107.606 48.888C107.528 49.0526 107.45 49.2178 107.371 49.3816C107.166 49.2628 106.9 49.1628 106.572 49.144C106.375 49.133 106.138 49.1532 105.888 49.2401C105.837 49.2576 105.79 49.2766 105.744 49.2969L105.558 48.7993L107.606 48.888ZM74.1469 40.6868C71.6022 40.7547 69.7228 41.9329 68.5341 43.5152C67.3899 45.0382 66.9023 46.9023 66.9433 48.4795L66.9433 48.4803C67.0576 52.8074 70.9225 55.9023 75.0715 55.7937C76.0848 55.7694 77.1177 55.5548 78.1214 55.1372C78.6507 55.4362 79.1678 55.627 79.5827 55.7499C79.9513 55.8591 80.2742 55.9249 80.5105 55.964C80.6294 55.9837 80.7285 55.997 80.803 56.0059C80.8404 56.0103 80.8718 56.0136 80.8966 56.016L80.9289 56.019L80.9412 56.0201L80.9464 56.0205L80.9488 56.0207L80.9499 56.0208C80.9505 56.0208 80.951 56.0209 81.0991 54.1392L80.951 56.0209C81.0192 56.0262 81.0876 56.0279 81.156 56.0258C81.7765 56.0071 82.3395 55.7634 82.7732 55.3486C83.1522 54.9863 83.3606 54.5629 83.4829 54.2523L84.438 51.8699C84.4679 51.8062 84.4935 51.7434 84.5153 51.682C84.7632 52.4968 85.1503 53.2836 85.6834 54.0032C86.9556 55.7201 88.9703 56.9367 91.6116 57.3097L91.6174 57.3105L91.8433 57.3417C91.8447 57.3419 91.8461 57.3421 91.8475 57.3423C92.4436 57.4257 93.0555 57.3581 93.6203 57.0715C94.1666 56.7941 94.5071 56.3932 94.7114 56.0939C94.7255 56.0732 94.7393 56.0522 94.7526 56.0309C94.9719 55.6804 95.2598 55.1796 95.4958 54.7438C95.6142 54.5252 95.7295 54.3047 95.8211 54.1155C95.8661 54.0225 95.9144 53.9186 95.9566 53.8166C95.9574 53.8148 95.9583 53.8125 95.9595 53.8097C95.9825 53.7545 96.0803 53.5208 96.1197 53.2466L96.1198 53.2466L96.1214 53.2346C96.1285 53.1833 96.1338 53.1327 96.1375 53.0825C96.1412 53.0818 96.145 53.0811 96.1487 53.0804L74.1469 40.6868ZM83.3153 49.0274C83.3153 49.0275 83.3139 49.0253 83.3113 49.0202C83.3141 49.0247 83.3154 49.0273 83.3153 49.0274Z"
			fill="#F5A97F" stroke="#F5A97F" stroke-width="3.77497" stroke-linejoin="round"/>
		<path
			d="M71.2417 46.2435L69.1183 36.8061L71.9495 33.0311L79.9713 30.4358L89.6447 32.5592H92.9478L96.9587 33.7389L101.677 32.5592L108.048 33.9748L111.351 33.7389L115.598 32.3233L118.665 36.5701L119.373 38.4576C116.541 38.2689 115.519 39.48 115.362 40.1092L113.474 44.8279C112.373 46.2435 110.077 49.2163 109.699 49.7825C109.322 50.3488 105.138 49.5466 103.093 49.0747L98.3743 45.5357L90.1166 49.0747L83.5104 48.3669H78.5557L71.2417 46.2435Z"
			fill="white"/>
		<path
			d="M50.4374 43.6595L50.4355 43.6643L50.4299 43.6783L50.4121 43.7216C50.3975 43.757 50.3771 43.8054 50.3511 43.8656C50.2992 43.9857 50.2244 44.1532 50.1271 44.3574C49.9333 44.7643 49.647 45.3238 49.2706 45.9481C48.5369 47.1651 47.3786 48.7674 45.785 49.9054C44.3167 50.9555 42.1389 51.7261 40.1984 52.4127C40.0769 52.4557 39.9563 52.4984 39.8369 52.5408C37.6657 53.3114 35.677 54.0466 34.2235 55.0127C34.2179 55.0169 34.212 55.0214 34.2057 55.0262C34.1992 55.0311 34.1923 55.0363 34.185 55.0417C34.1264 55.0857 34.0445 55.1459 33.941 55.2194C33.734 55.3663 33.4392 55.5669 33.068 55.7974C32.3284 56.2566 31.2709 56.8436 29.9898 57.3582C27.456 58.376 23.8524 59.1856 20.0904 57.9068L50.4374 43.6595ZM50.4374 43.6595C50.4375 43.6594 50.4375 43.6593 50.4376 43.6591C54.7633 32.8267 52.4803 25.3249 48.8239 20.5389C47.0395 18.2032 44.9846 16.586 43.3863 15.5542C42.5843 15.0364 41.888 14.6601 41.3839 14.4098C41.1315 14.2846 40.9263 14.1904 40.779 14.1255C40.7053 14.093 40.646 14.0678 40.6024 14.0496C40.5805 14.0406 40.5626 14.0332 40.5488 14.0276L40.5312 14.0205L40.5247 14.018L40.522 14.0169C40.5208 14.0165 40.5197 14.016 39.8321 15.7635L40.5197 14.016L40.5159 14.0145L39.8286 15.7724C40.5159 14.0145 40.5152 14.0143 40.5145 14.014L40.5126 14.0132L40.5073 14.0112L40.4912 14.005L40.4368 13.9842C40.3907 13.9668 40.3253 13.9424 40.2414 13.9118C40.0737 13.8506 39.8321 13.7648 39.5244 13.6615C38.9093 13.4551 38.0278 13.178 36.942 12.8878C34.7762 12.309 31.7677 11.6698 28.421 11.444C21.796 10.997 13.3811 12.1547 7.88823 19.2273L50.4374 43.6595ZM7.32776 49.2246C6.48186 48.2917 5.73085 47.314 5.36994 46.4699L7.32776 49.2246ZM7.32776 49.2246C8.21821 50.2067 9.36165 51.2985 10.668 52.3786M7.32776 49.2246L10.668 52.3786M10.668 52.3786C13.2609 54.5225 16.6296 56.7309 20.09 57.9067L10.668 52.3786ZM5.10032 45.9087C5.22185 46.1539 5.31531 46.3424 5.36973 46.4694L7.88814 19.2274C2.64718 25.9746 1.7288 32.2758 2.33241 37.2281C2.83296 41.3347 4.41409 44.5244 5.10032 45.9087Z"
			fill="#E7CEAA" stroke="white" stroke-width="3.77497"/>
		<path
			d="M34.5011 49.5924C34.5011 49.5924 27.1131 51.5252 20.7787 49.7325C14.4443 47.9438 8.10585 42.8763 7.18615 41.0876C6.26441 39.2949 -0.705451 33.2488 9.46002 20.0014C19.6255 6.75405 37.6338 14.5442 37.6338 14.5442C37.6338 14.5442 56.9456 21.7434 48.7657 38.7853C48.7657 38.7853 47.3506 41.7495 44.7681 43.2864C42.1856 44.8213 37.8835 47.6961 34.5011 49.5924Z"
			fill="#E3B26C"/>
		<path
			d="M34.5031 46.4008C34.5031 46.4008 24.7945 48.1874 18.4601 46.3968C12.1257 44.6081 8.54229 41.717 7.62056 39.9284C6.69883 38.1357 -0.705491 33.2488 9.45998 20.0014C19.6255 6.75405 37.6338 14.5442 37.6338 14.5442C37.6338 14.5442 57.6703 23.4833 47.8947 37.4779C47.8947 37.4779 46.0431 39.4289 43.4626 40.9658C40.8802 42.4987 38.7585 44.9431 34.5031 46.4008Z"
			fill="#E6AC59"/>
		<path
			d="M34.0361 43.1321C34.0361 43.1321 26.51 44.7624 20.1736 42.9697C13.8392 41.181 10.8771 40.1578 9.95534 38.3692C9.03564 36.5765 -0.705517 33.2488 9.45995 20.0014C19.6254 6.75405 37.6338 14.5442 37.6338 14.5442C37.6338 14.5442 56.8927 22.0825 47.115 36.079C47.115 36.079 45.7324 37.8697 43.152 39.4066C40.5695 40.9394 38.2916 41.6724 34.0361 43.1321Z"
			fill="#F2AF4E"/>
		<path
			d="M36.1943 39.6259C31.7338 40.3892 24.5203 41.2257 18.1859 39.435C11.8495 37.6444 -0.705569 33.2488 9.4599 20.0014C19.6254 6.75405 37.6337 14.5442 37.6337 14.5442C37.6337 14.5442 56.781 22.1941 46.2298 35.0842C46.2298 35.0842 40.6547 38.8625 36.1943 39.6259Z"
			fill="#F0B35C"/>
		<path
			d="M17.7495 35.8741C18.0354 35.8741 18.2672 35.7278 18.2672 35.5472C18.2672 35.3667 18.0354 35.2203 17.7495 35.2203C17.4636 35.2203 17.2318 35.3667 17.2318 35.5472C17.2318 35.7278 17.4636 35.8741 17.7495 35.8741Z"
			fill="#FDD8A5"/>
		<path
			d="M23.1338 33.3931C23.4197 33.3931 23.6515 33.2468 23.6515 33.0663C23.6515 32.8857 23.4197 32.7394 23.1338 32.7394C22.8479 32.7394 22.6161 32.8857 22.6161 33.0663C22.6161 33.2468 22.8479 33.3931 23.1338 33.3931Z"
			fill="#FDD8A5"/>
		<path
			d="M19.656 29.637C19.942 29.637 20.1737 29.4907 20.1737 29.3101C20.1737 29.1296 19.942 28.9833 19.656 28.9833C19.3701 28.9833 19.1383 29.1296 19.1383 29.3101C19.1383 29.4907 19.3701 29.637 19.656 29.637Z"
			fill="#FDD8A5"/>
		<path
			d="M33.082 28.2058C33.368 28.2058 33.5997 28.0595 33.5997 27.879C33.5997 27.6985 33.368 27.5521 33.082 27.5521C32.7961 27.5521 32.5643 27.6985 32.5643 27.879C32.5643 28.0595 32.7961 28.2058 33.082 28.2058Z"
			fill="#FDD8A5"/>
		<path
			d="M16.9029 22.4581C17.1888 22.4581 17.4206 22.3117 17.4206 22.1312C17.4206 21.9507 17.1888 21.8043 16.9029 21.8043C16.6169 21.8043 16.3851 21.9507 16.3851 22.1312C16.3851 22.3117 16.6169 22.4581 16.9029 22.4581Z"
			fill="#FDD8A5"/>
		<path
			d="M26.2584 25.7736C26.5444 25.7736 26.7761 25.6273 26.7761 25.4467C26.7761 25.2662 26.5444 25.1199 26.2584 25.1199C25.9725 25.1199 25.7407 25.2662 25.7407 25.4467C25.7407 25.6273 25.9725 25.7736 26.2584 25.7736Z"
			fill="#FDD8A5"/>
		<path
			d="M43.0891 22.3161C43.375 22.3161 43.6068 22.1697 43.6068 21.9892C43.6068 21.8087 43.375 21.6624 43.0891 21.6624C42.8032 21.6624 42.5714 21.8087 42.5714 21.9892C42.5714 22.1697 42.8032 22.3161 43.0891 22.3161Z"
			fill="#FDD8A5"/>
		<path
			d="M27.0846 21.6419C27.3705 21.6419 27.6023 21.4955 27.6023 21.315C27.6023 21.1345 27.3705 20.9882 27.0846 20.9882C26.7987 20.9882 26.5669 21.1345 26.5669 21.315C26.5669 21.4955 26.7987 21.6419 27.0846 21.6419Z"
			fill="#FDD8A5"/>
		<path
			d="M24.8939 19.4533C25.1799 19.4533 25.4116 19.3069 25.4116 19.1264C25.4116 18.9459 25.1799 18.7996 24.8939 18.7996C24.608 18.7996 24.3762 18.9459 24.3762 19.1264C24.3762 19.3069 24.608 19.4533 24.8939 19.4533Z"
			fill="#FDD8A5"/>
		<path
			d="M13.4373 28.1713C13.7232 28.1713 13.955 28.025 13.955 27.8444C13.955 27.6639 13.7232 27.5176 13.4373 27.5176C13.1514 27.5176 12.9196 27.6639 12.9196 27.8444C12.9196 28.025 13.1514 28.1713 13.4373 28.1713Z"
			fill="#FDD8A5"/>
		<path
			d="M34.7082 34.5727C34.9941 34.5727 35.2258 34.4263 35.2258 34.2458C35.2258 34.0653 34.9941 33.9189 34.7082 33.9189C34.4222 33.9189 34.1904 34.0653 34.1904 34.2458C34.1904 34.4263 34.4222 34.5727 34.7082 34.5727Z"
			fill="#FDD8A5"/>
		<path
			d="M40.8985 31.5414C41.1844 31.5414 41.4162 31.3951 41.4162 31.2146C41.4162 31.0341 41.1844 30.8877 40.8985 30.8877C40.6125 30.8877 40.3807 31.0341 40.3807 31.2146C40.3807 31.3951 40.6125 31.5414 40.8985 31.5414Z"
			fill="#FDD8A5"/>
		<path
			d="M36.6024 24.8437C36.8884 24.8437 37.1201 24.6973 37.1201 24.5168C37.1201 24.3363 36.8884 24.1899 36.6024 24.1899C36.3165 24.1899 36.0847 24.3363 36.0847 24.5168C36.0847 24.6973 36.3165 24.8437 36.6024 24.8437Z"
			fill="#FDD8A5"/>
		<path
			d="M34.3711 17.3886C34.657 17.3886 34.8888 17.2423 34.8888 17.0617C34.8888 16.8812 34.657 16.7349 34.3711 16.7349C34.0852 16.7349 33.8534 16.8812 33.8534 17.0617C33.8534 17.2423 34.0852 17.3886 34.3711 17.3886Z"
			fill="#FDD8A5"/>
		<path
			d="M24.8189 27.5947C24.8997 27.5947 24.9651 27.5274 24.9651 27.4444C24.9651 27.3614 24.8997 27.2942 24.8189 27.2942C24.7382 27.2942 24.6727 27.3614 24.6727 27.4444C24.6727 27.5274 24.7382 27.5947 24.8189 27.5947Z"
			fill="#FDD8A5"/>
		<path
			d="M28.5444 30.4492C28.6251 30.4492 28.6905 30.3819 28.6905 30.2989C28.6905 30.216 28.6251 30.1487 28.5444 30.1487C28.4636 30.1487 28.3982 30.216 28.3982 30.2989C28.3982 30.3819 28.4636 30.4492 28.5444 30.4492Z"
			fill="#FDD8A5"/>
		<path
			d="M29.5433 30.2746C29.624 30.2746 29.6895 30.2073 29.6895 30.1244C29.6895 30.0414 29.624 29.9741 29.5433 29.9741C29.4626 29.9741 29.3971 30.0414 29.3971 30.1244C29.3971 30.2073 29.4626 30.2746 29.5433 30.2746Z"
			fill="#FDD8A5"/>
		<path
			d="M29.328 29.3468C29.4088 29.3468 29.4742 29.2795 29.4742 29.1965C29.4742 29.1135 29.4088 29.0463 29.328 29.0463C29.2473 29.0463 29.1819 29.1135 29.1819 29.1965C29.1819 29.2795 29.2473 29.3468 29.328 29.3468Z"
			fill="#FDD8A5"/>
		<path
			d="M28.4632 29.3468C28.5439 29.3468 28.6094 29.2795 28.6094 29.1965C28.6094 29.1135 28.5439 29.0463 28.4632 29.0463C28.3825 29.0463 28.317 29.1135 28.317 29.1965C28.317 29.2795 28.3825 29.3468 28.4632 29.3468Z"
			fill="#FDD8A5"/>
		<path
			d="M31.0579 36.4811C31.1387 36.4811 31.2041 36.4139 31.2041 36.3309C31.2041 36.2479 31.1387 36.1807 31.0579 36.1807C30.9772 36.1807 30.9117 36.2479 30.9117 36.3309C30.9117 36.4139 30.9772 36.4811 31.0579 36.4811Z"
			fill="#FDD8A5"/>
		<path
			d="M14.1945 33.3321C14.2753 33.3321 14.3407 33.2648 14.3407 33.1819C14.3407 33.0989 14.2753 33.0316 14.1945 33.0316C14.1138 33.0316 14.0483 33.0989 14.0483 33.1819C14.0483 33.2648 14.1138 33.3321 14.1945 33.3321Z"
			fill="#FDD8A5"/>
		<path
			d="M14.7509 33.0541C14.8317 33.0541 14.8971 32.9869 14.8971 32.9039C14.8971 32.8209 14.8317 32.7537 14.7509 32.7537C14.6702 32.7537 14.6047 32.8209 14.6047 32.9039C14.6047 32.9869 14.6702 33.0541 14.7509 33.0541Z"
			fill="#FDD8A5"/>
		<path
			d="M14.7204 33.7951C14.8011 33.7951 14.8666 33.7278 14.8666 33.6448C14.8666 33.5619 14.8011 33.4946 14.7204 33.4946C14.6397 33.4946 14.5742 33.5619 14.5742 33.6448C14.5742 33.7278 14.6397 33.7951 14.7204 33.7951Z"
			fill="#FDD8A5"/>
		<path
			d="M9.00724 29.966C9.08798 29.966 9.15343 29.8987 9.15343 29.8157C9.15343 29.7328 9.08798 29.6655 9.00724 29.6655C8.92651 29.6655 8.86108 29.7328 8.86108 29.8157C8.86108 29.8987 8.92651 29.966 9.00724 29.966Z"
			fill="#FDD8A5"/>
		<path
			d="M22.1329 17.2424C22.2136 17.2424 22.279 17.1751 22.279 17.0921C22.279 17.0091 22.2136 16.9419 22.1329 16.9419C22.0522 16.9419 21.9867 17.0091 21.9867 17.0921C21.9867 17.1751 22.0522 17.2424 22.1329 17.2424Z"
			fill="#FDD8A5"/>
		<path
			d="M28.5566 17.951C28.6373 17.951 28.7028 17.8837 28.7028 17.8007C28.7028 17.7178 28.6373 17.6505 28.5566 17.6505C28.4759 17.6505 28.4104 17.7178 28.4104 17.8007C28.4104 17.8837 28.4759 17.951 28.5566 17.951Z"
			fill="#FDD8A5"/>
		<path
			d="M29.8843 25.2701C29.9651 25.2701 30.0305 25.2028 30.0305 25.1199C30.0305 25.0369 29.9651 24.9696 29.8843 24.9696C29.8036 24.9696 29.7382 25.0369 29.7382 25.1199C29.7382 25.2028 29.8036 25.2701 29.8843 25.2701Z"
			fill="#FDD8A5"/>
		<path
			d="M28.2459 24.0357C28.3267 24.0357 28.3921 23.9685 28.3921 23.8855C28.3921 23.8025 28.3267 23.7352 28.2459 23.7352C28.1652 23.7352 28.0997 23.8025 28.0997 23.8855C28.0997 23.9685 28.1652 24.0357 28.2459 24.0357Z"
			fill="#FDD8A5"/>
		<path
			d="M30.4711 23.0469C30.5519 23.0469 30.6173 22.9797 30.6173 22.8967C30.6173 22.8137 30.5519 22.7465 30.4711 22.7465C30.3904 22.7465 30.325 22.8137 30.325 22.8967C30.325 22.9797 30.3904 23.0469 30.4711 23.0469Z"
			fill="#FDD8A5"/>
		<path
			d="M27.7222 22.4907C27.8029 22.4907 27.8684 22.4234 27.8684 22.3404C27.8684 22.2575 27.8029 22.1902 27.7222 22.1902C27.6415 22.1902 27.576 22.2575 27.576 22.3404C27.576 22.4234 27.6415 22.4907 27.7222 22.4907Z"
			fill="#FDD8A5"/>
		<path
			d="M28.6784 22.9556C28.7591 22.9556 28.8246 22.8884 28.8246 22.8054C28.8246 22.7224 28.7591 22.6552 28.6784 22.6552C28.5977 22.6552 28.5322 22.7224 28.5322 22.8054C28.5322 22.8884 28.5977 22.9556 28.6784 22.9556Z"
			fill="#FDD8A5"/>
		<path
			d="M29.1434 22.0906C29.2241 22.0906 29.2895 22.0234 29.2895 21.9404C29.2895 21.8574 29.2241 21.7902 29.1434 21.7902C29.0626 21.7902 28.9972 21.8574 28.9972 21.9404C28.9972 22.0234 29.0626 22.0906 29.1434 22.0906Z"
			fill="#FDD8A5"/>
		<path
			d="M26.364 23.9422C26.4447 23.9422 26.5101 23.8749 26.5101 23.792C26.5101 23.709 26.4447 23.6417 26.364 23.6417C26.2832 23.6417 26.2178 23.709 26.2178 23.792C26.2178 23.8749 26.2832 23.9422 26.364 23.9422Z"
			fill="#FDD8A5"/>
		<path
			d="M26.6094 23.4489C26.6901 23.4489 26.7556 23.3817 26.7556 23.2987C26.7556 23.2157 26.6901 23.1484 26.6094 23.1484C26.5287 23.1484 26.4633 23.2157 26.4633 23.2987C26.4633 23.3817 26.5287 23.4489 26.6094 23.4489Z"
			fill="#FDD8A5"/>
		<path
			d="M33.1104 32.1811C33.3021 32.1811 33.4575 32.0275 33.4575 31.838C33.4575 31.6485 33.3021 31.4949 33.1104 31.4949C32.9186 31.4949 32.7632 31.6485 32.7632 31.838C32.7632 32.0275 32.9186 32.1811 33.1104 32.1811Z"
			fill="#FDD8A5"/>
		<path
			d="M23.7063 34.6356C23.8981 34.6356 24.0535 34.4819 24.0535 34.2924C24.0535 34.1029 23.8981 33.9493 23.7063 33.9493C23.5146 33.9493 23.3591 34.1029 23.3591 34.2924C23.3591 34.4819 23.5146 34.6356 23.7063 34.6356Z"
			fill="#FDD8A5"/>
		<path
			d="M24.0474 33.6469C24.2391 33.6469 24.3946 33.4933 24.3946 33.3038C24.3946 33.1143 24.2391 32.9607 24.0474 32.9607C23.8556 32.9607 23.7002 33.1143 23.7002 33.3038C23.7002 33.4933 23.8556 33.6469 24.0474 33.6469Z"
			fill="#FDD8A5"/>
		<path
			d="M23.3063 32.5058C23.498 32.5058 23.6534 32.3522 23.6534 32.1627C23.6534 31.9732 23.498 31.8196 23.3063 31.8196C23.1145 31.8196 22.9591 31.9732 22.9591 32.1627C22.9591 32.3522 23.1145 32.5058 23.3063 32.5058Z"
			fill="#FDD8A5"/>
		<path
			d="M38.4682 28.3053C38.66 28.3053 38.8154 28.1516 38.8154 27.9621C38.8154 27.7726 38.66 27.619 38.4682 27.619C38.2765 27.619 38.1211 27.7726 38.1211 27.9621C38.1211 28.1516 38.2765 28.3053 38.4682 28.3053Z"
			fill="#FDD8A5"/>
		<path
			d="M33.7134 21.2339C33.9051 21.2339 34.0606 21.0803 34.0606 20.8908C34.0606 20.7013 33.9051 20.5477 33.7134 20.5477C33.5217 20.5477 33.3662 20.7013 33.3662 20.8908C33.3662 21.0803 33.5217 21.2339 33.7134 21.2339Z"
			fill="#FDD8A5"/>
		<path
			d="M14.1032 17.7053C14.184 17.7053 14.2494 17.638 14.2494 17.555C14.2494 17.4721 14.184 17.4048 14.1032 17.4048C14.0225 17.4048 13.957 17.4721 13.957 17.555C13.957 17.638 14.0225 17.7053 14.1032 17.7053Z"
			fill="#FDD8A5"/>
		<path
			d="M13.6403 18.6007C13.7211 18.6007 13.7865 18.5334 13.7865 18.4504C13.7865 18.3674 13.7211 18.3002 13.6403 18.3002C13.5596 18.3002 13.4941 18.3674 13.4941 18.4504C13.4941 18.5334 13.5596 18.6007 13.6403 18.6007Z"
			fill="#FDD8A5"/>
		<path
			d="M7.4318 28.7601C7.51254 28.7601 7.578 28.6928 7.578 28.6098C7.578 28.5269 7.51254 28.4596 7.4318 28.4596C7.35107 28.4596 7.28564 28.5269 7.28564 28.6098C7.28564 28.6928 7.35107 28.7601 7.4318 28.7601Z"
			fill="#FDD8A5"/>
		<path
			d="M41.8466 36.3775C41.9273 36.3775 41.9928 36.3102 41.9928 36.2273C41.9928 36.1443 41.9273 36.077 41.8466 36.077C41.7659 36.077 41.7004 36.1443 41.7004 36.2273C41.7004 36.3102 41.7659 36.3775 41.8466 36.3775Z"
			fill="#FDD8A5"/>
		<path
			d="M40.5086 36.8222C40.5893 36.8222 40.6548 36.7549 40.6548 36.6719C40.6548 36.589 40.5893 36.5217 40.5086 36.5217C40.4279 36.5217 40.3624 36.589 40.3624 36.6719C40.3624 36.7549 40.4279 36.8222 40.5086 36.8222Z"
			fill="#FDD8A5"/>
		<path
			d="M41.3005 35.9817C41.3812 35.9817 41.4467 35.9145 41.4467 35.8315C41.4467 35.7485 41.3812 35.6813 41.3005 35.6813C41.2198 35.6813 41.1543 35.7485 41.1543 35.8315C41.1543 35.9145 41.2198 35.9817 41.3005 35.9817Z"
			fill="#FDD8A5"/>
		<path
			d="M43.9764 33.2063C44.0571 33.2063 44.1226 33.139 44.1226 33.056C44.1226 32.973 44.0571 32.9058 43.9764 32.9058C43.8956 32.9058 43.8302 32.973 43.8302 33.056C43.8302 33.139 43.8956 33.2063 43.9764 33.2063Z"
			fill="#FDD8A5"/>
		<mask id="path-109-outside-2_579_497" maskUnits="userSpaceOnUse" x="49.641" y="-4.3729"
					width="169.747" height="62.2566" fill="black">
			<rect fill="white" x="49.641" y="-4.3729" width="169.747" height="62.2566"/>
			<path
				d="M64.9076 41.5968C65.2693 41.5199 65.4904 41.2204 65.4434 40.8517L64.2441 33.2507C65.438 33.3764 66.7134 33.2961 67.9821 33.0266C73.6865 31.8167 76.8447 27.5208 75.6802 22.0261C74.5156 16.5314 68.928 13.6776 63.6131 14.8038C62.3464 15.073 61.0683 15.5964 59.8728 16.3543L54.774 17.1508L54.714 17.1629C54.4123 17.2277 54.1983 17.5572 54.2383 17.896L58.0842 42.0003L58.0985 42.0621C58.1684 42.3938 58.4978 42.6078 58.7995 42.5431L64.9076 41.5968ZM62.3768 21.4705C62.8589 21.2102 63.3533 21.0119 63.8347 20.9088C65.9487 20.4611 67.825 21.5777 68.2674 23.6596C68.9702 26.9805 66.0731 27.596 65.8313 27.6467C64.986 27.8249 64.0604 27.7704 63.3251 27.5785L62.3768 21.4705ZM101.18 27.3408C101.246 27.22 101.281 27.1287 101.283 27.0673C101.297 26.7578 100.965 26.5583 100.663 26.3926C99.7007 25.8255 99.418 24.4847 99.4965 22.6344C99.5832 20.5997 100.127 17.9358 100.68 15.1487L100.687 14.995C100.701 14.6243 100.503 14.2155 99.7037 14.1198L94.3892 13.4301L94.2354 13.423C93.8645 13.4069 93.5849 13.4879 93.3893 13.6951C92.2099 13.1211 90.7128 12.7176 89.1718 12.651C83.0677 12.391 80.2204 17.6148 80.0611 21.3135C79.8506 26.2783 84.1216 30.4142 89.2708 30.6328C90.8445 30.7002 92.5243 30.4 94.1641 29.6365C95.6435 31.1517 97.7809 31.7362 98.0882 31.7484C98.4898 31.7654 98.8103 31.5008 99.1102 30.9894L101.18 27.3408ZM92.2416 24.705C91.5186 24.9833 90.8363 25.0779 90.2503 25.0527C88.2463 24.967 87.106 23.4363 87.1805 21.7089C87.2461 20.1374 88.4054 18.3017 90.348 18.3853C91.2433 18.4225 92.0572 18.8901 92.3999 19.5231C92.3001 20.4451 92.2341 21.276 92.1998 22.0772C92.1586 23.0341 92.1836 23.8988 92.2416 24.705ZM123.915 26.4573C124.761 20.6232 120.61 16.1529 114.409 15.2537C113.31 15.0921 112.163 15.0514 110.936 15.1229L107.542 14.4414L107.482 14.4331C107.176 14.3882 106.86 14.6237 106.781 14.956L103.649 30.716C103.596 31.0824 103.8 31.3926 104.164 31.4767L110.226 32.6692L110.288 32.6773C110.593 32.7224 110.908 32.4869 110.953 32.1825L113.144 21.1806C115.355 21.6271 116.718 23.1969 116.25 26.404L116.101 27.4412C115.311 32.8779 119.961 35.2071 120.512 35.2868C120.787 35.3267 121.105 35.2786 121.446 35.0793C121.446 35.0793 124.785 33.3505 124.793 33.2885C125.03 33.1669 125.147 32.9981 125.174 32.8139C125.222 32.4785 124.963 32.129 124.8 31.9494C123.717 30.6067 123.519 29.1738 123.769 27.4635L123.915 26.4573ZM148.221 31.7483C148.286 31.6562 148.287 31.5642 148.29 31.4721C148.297 31.1939 147.96 31.0316 147.626 30.8691C146.373 30.282 146.05 28.3923 146.11 25.8624C146.163 23.7332 147.464 10.892 147.535 10.4932L147.538 10.4011C147.547 9.9676 147.311 9.56071 146.446 9.54094L141.113 9.31821C140.495 9.30233 139.994 9.59919 139.95 10.1238L139.193 18.3771C138.093 17.9502 136.773 17.6392 135.445 17.6065C129.338 17.4589 126.587 22.669 126.496 26.4344C126.373 31.4006 130.689 35.4566 135.842 35.5831C137.539 35.6238 139.339 35.2361 141.09 34.3207C142.774 36.0909 145.42 36.4329 145.42 36.4329C145.884 36.4437 146.199 36.1429 146.462 35.5638L148.221 31.7483ZM139.015 29.4555C138.143 29.8343 137.366 30.0016 136.689 29.9855C134.713 29.9358 133.546 28.4261 133.588 26.6999C133.63 24.9716 134.845 23.3038 136.696 23.3476C137.62 23.3717 138.473 23.8232 138.799 24.4497C138.751 26.4234 138.833 28.0617 139.015 29.4555ZM159.882 39.1907C160.76 39.3663 161.238 39.0207 161.576 38.5851C162.235 37.646 163.433 35.7452 163.493 35.4434C163.596 34.9271 163.136 34.5527 162.712 34.4686L162.651 34.4562C162.434 34.4453 162.192 34.3959 161.98 34.3539C158.198 33.599 157.106 30.8636 157.535 28.7152C157.911 26.8394 159.373 25.81 160.826 26.0996C162.098 26.3522 162.479 27.4363 162.425 27.709C162.341 28.1316 162.116 28.1499 160.47 28.1999C160.059 28.2123 159.786 28.3151 159.719 28.6482C159.697 28.7688 159.878 30.8502 160.042 31.9214C160.091 32.3082 160.201 32.5503 160.684 32.647C162.27 32.9008 164.577 33.0154 166.095 32.8149C168 32.5656 168.805 31.5304 169.084 30.1376C169.283 29.1405 170.283 22.385 162.779 20.8875C155.88 19.5112 151.916 23.4406 151.054 27.7685C150.136 32.3672 152.65 37.7477 159.52 39.1187L159.882 39.1907ZM172.091 41.3593C176.22 41.592 181.847 39.9328 182.053 36.2967C182.12 35.127 181.582 33.7055 180.251 32.0837C179.155 30.7241 178.724 30.1121 178.754 29.5888C178.79 28.9731 179.532 28.3971 181.381 28.5003L181.504 28.5084C181.904 28.5297 182.251 28.4257 182.27 28.0872C182.275 27.9948 182.28 27.9025 182.227 27.7752L181.042 24.1229C180.857 23.5558 180.557 23.4164 179.355 23.3487C175.319 23.119 170.193 24.6833 169.995 28.1655C169.928 29.3352 170.409 30.693 171.676 32.309L172.456 33.2819C172.857 33.8601 173.229 34.376 173.205 34.7762C173.165 35.5147 172.253 36.3301 170.433 36.2566C170.064 36.2363 169.445 36.2634 169.417 36.7252C169.415 36.7866 169.439 36.8822 169.465 36.9755L170.619 40.6269C170.774 41.1602 171.076 41.3015 171.753 41.34L172.091 41.3593ZM204.233 32.9346C204.266 32.8007 204.275 32.7039 204.261 32.6421C204.192 32.3429 203.818 32.2394 203.484 32.1585C202.402 31.8686 201.773 30.6541 201.356 28.8492C200.895 26.8651 200.712 24.1514 200.498 21.3183L200.465 21.1685C200.38 20.8077 200.081 20.4642 199.285 20.5865L193.978 21.3385L193.828 21.3738C193.467 21.4568 193.217 21.6103 193.085 21.8622C191.796 21.6235 190.245 21.6335 188.743 21.9813C182.79 23.3589 181.438 29.1516 182.273 32.7592C183.393 37.5994 188.613 40.4471 193.634 39.2849C195.168 38.9298 196.708 38.1926 198.083 37.0189C199.913 38.0829 202.13 38.078 202.429 38.0073C202.82 37.9173 203.06 37.5771 203.21 37.003L204.233 32.9346ZM194.915 32.7789C194.294 33.2388 193.66 33.5123 193.09 33.6447C191.135 34.0968 189.629 32.925 189.239 31.2419C188.884 29.7083 189.511 27.6319 191.405 27.1919C192.277 26.9906 193.188 27.2241 193.686 27.7416C193.835 28.6572 193.994 29.4758 194.174 30.2576C194.389 31.191 194.645 32.0183 194.915 32.7789ZM214.105 32.9227C214.423 32.8051 214.588 32.448 214.468 32.1314L205.703 8.49158C205.574 8.14328 205.217 7.97897 204.9 8.0983L199.084 10.2539C198.765 10.3714 198.601 10.7285 198.73 11.0768L207.495 34.7166C207.615 35.0352 207.97 35.1978 208.289 35.0803L214.105 32.9227Z"/>
		</mask>
		<path
			d="M64.9076 41.5968C65.2693 41.5199 65.4904 41.2204 65.4434 40.8517L64.2441 33.2507C65.438 33.3764 66.7134 33.2961 67.9821 33.0266C73.6865 31.8167 76.8447 27.5208 75.6802 22.0261C74.5156 16.5314 68.928 13.6776 63.6131 14.8038C62.3464 15.073 61.0683 15.5964 59.8728 16.3543L54.774 17.1508L54.714 17.1629C54.4123 17.2277 54.1983 17.5572 54.2383 17.896L58.0842 42.0003L58.0985 42.0621C58.1684 42.3938 58.4978 42.6078 58.7995 42.5431L64.9076 41.5968ZM62.3768 21.4705C62.8589 21.2102 63.3533 21.0119 63.8347 20.9088C65.9487 20.4611 67.825 21.5777 68.2674 23.6596C68.9702 26.9805 66.0731 27.596 65.8313 27.6467C64.986 27.8249 64.0604 27.7704 63.3251 27.5785L62.3768 21.4705ZM101.18 27.3408C101.246 27.22 101.281 27.1287 101.283 27.0673C101.297 26.7578 100.965 26.5583 100.663 26.3926C99.7007 25.8255 99.418 24.4847 99.4965 22.6344C99.5832 20.5997 100.127 17.9358 100.68 15.1487L100.687 14.995C100.701 14.6243 100.503 14.2155 99.7037 14.1198L94.3892 13.4301L94.2354 13.423C93.8645 13.4069 93.5849 13.4879 93.3893 13.6951C92.2099 13.1211 90.7128 12.7176 89.1718 12.651C83.0677 12.391 80.2204 17.6148 80.0611 21.3135C79.8506 26.2783 84.1216 30.4142 89.2708 30.6328C90.8445 30.7002 92.5243 30.4 94.1641 29.6365C95.6435 31.1517 97.7809 31.7362 98.0882 31.7484C98.4898 31.7654 98.8103 31.5008 99.1102 30.9894L101.18 27.3408ZM92.2416 24.705C91.5186 24.9833 90.8363 25.0779 90.2503 25.0527C88.2463 24.967 87.106 23.4363 87.1805 21.7089C87.2461 20.1374 88.4054 18.3017 90.348 18.3853C91.2433 18.4225 92.0572 18.8901 92.3999 19.5231C92.3001 20.4451 92.2341 21.276 92.1998 22.0772C92.1586 23.0341 92.1836 23.8988 92.2416 24.705ZM123.915 26.4573C124.761 20.6232 120.61 16.1529 114.409 15.2537C113.31 15.0921 112.163 15.0514 110.936 15.1229L107.542 14.4414L107.482 14.4331C107.176 14.3882 106.86 14.6237 106.781 14.956L103.649 30.716C103.596 31.0824 103.8 31.3926 104.164 31.4767L110.226 32.6692L110.288 32.6773C110.593 32.7224 110.908 32.4869 110.953 32.1825L113.144 21.1806C115.355 21.6271 116.718 23.1969 116.25 26.404L116.101 27.4412C115.311 32.8779 119.961 35.2071 120.512 35.2868C120.787 35.3267 121.105 35.2786 121.446 35.0793C121.446 35.0793 124.785 33.3505 124.793 33.2885C125.03 33.1669 125.147 32.9981 125.174 32.8139C125.222 32.4785 124.963 32.129 124.8 31.9494C123.717 30.6067 123.519 29.1738 123.769 27.4635L123.915 26.4573ZM148.221 31.7483C148.286 31.6562 148.287 31.5642 148.29 31.4721C148.297 31.1939 147.96 31.0316 147.626 30.8691C146.373 30.282 146.05 28.3923 146.11 25.8624C146.163 23.7332 147.464 10.892 147.535 10.4932L147.538 10.4011C147.547 9.9676 147.311 9.56071 146.446 9.54094L141.113 9.31821C140.495 9.30233 139.994 9.59919 139.95 10.1238L139.193 18.3771C138.093 17.9502 136.773 17.6392 135.445 17.6065C129.338 17.4589 126.587 22.669 126.496 26.4344C126.373 31.4006 130.689 35.4566 135.842 35.5831C137.539 35.6238 139.339 35.2361 141.09 34.3207C142.774 36.0909 145.42 36.4329 145.42 36.4329C145.884 36.4437 146.199 36.1429 146.462 35.5638L148.221 31.7483ZM139.015 29.4555C138.143 29.8343 137.366 30.0016 136.689 29.9855C134.713 29.9358 133.546 28.4261 133.588 26.6999C133.63 24.9716 134.845 23.3038 136.696 23.3476C137.62 23.3717 138.473 23.8232 138.799 24.4497C138.751 26.4234 138.833 28.0617 139.015 29.4555ZM159.882 39.1907C160.76 39.3663 161.238 39.0207 161.576 38.5851C162.235 37.646 163.433 35.7452 163.493 35.4434C163.596 34.9271 163.136 34.5527 162.712 34.4686L162.651 34.4562C162.434 34.4453 162.192 34.3959 161.98 34.3539C158.198 33.599 157.106 30.8636 157.535 28.7152C157.911 26.8394 159.373 25.81 160.826 26.0996C162.098 26.3522 162.479 27.4363 162.425 27.709C162.341 28.1316 162.116 28.1499 160.47 28.1999C160.059 28.2123 159.786 28.3151 159.719 28.6482C159.697 28.7688 159.878 30.8502 160.042 31.9214C160.091 32.3082 160.201 32.5503 160.684 32.647C162.27 32.9008 164.577 33.0154 166.095 32.8149C168 32.5656 168.805 31.5304 169.084 30.1376C169.283 29.1405 170.283 22.385 162.779 20.8875C155.88 19.5112 151.916 23.4406 151.054 27.7685C150.136 32.3672 152.65 37.7477 159.52 39.1187L159.882 39.1907ZM172.091 41.3593C176.22 41.592 181.847 39.9328 182.053 36.2967C182.12 35.127 181.582 33.7055 180.251 32.0837C179.155 30.7241 178.724 30.1121 178.754 29.5888C178.79 28.9731 179.532 28.3971 181.381 28.5003L181.504 28.5084C181.904 28.5297 182.251 28.4257 182.27 28.0872C182.275 27.9948 182.28 27.9025 182.227 27.7752L181.042 24.1229C180.857 23.5558 180.557 23.4164 179.355 23.3487C175.319 23.119 170.193 24.6833 169.995 28.1655C169.928 29.3352 170.409 30.693 171.676 32.309L172.456 33.2819C172.857 33.8601 173.229 34.376 173.205 34.7762C173.165 35.5147 172.253 36.3301 170.433 36.2566C170.064 36.2363 169.445 36.2634 169.417 36.7252C169.415 36.7866 169.439 36.8822 169.465 36.9755L170.619 40.6269C170.774 41.1602 171.076 41.3015 171.753 41.34L172.091 41.3593ZM204.233 32.9346C204.266 32.8007 204.275 32.7039 204.261 32.6421C204.192 32.3429 203.818 32.2394 203.484 32.1585C202.402 31.8686 201.773 30.6541 201.356 28.8492C200.895 26.8651 200.712 24.1514 200.498 21.3183L200.465 21.1685C200.38 20.8077 200.081 20.4642 199.285 20.5865L193.978 21.3385L193.828 21.3738C193.467 21.4568 193.217 21.6103 193.085 21.8622C191.796 21.6235 190.245 21.6335 188.743 21.9813C182.79 23.3589 181.438 29.1516 182.273 32.7592C183.393 37.5994 188.613 40.4471 193.634 39.2849C195.168 38.9298 196.708 38.1926 198.083 37.0189C199.913 38.0829 202.13 38.078 202.429 38.0073C202.82 37.9173 203.06 37.5771 203.21 37.003L204.233 32.9346ZM194.915 32.7789C194.294 33.2388 193.66 33.5123 193.09 33.6447C191.135 34.0968 189.629 32.925 189.239 31.2419C188.884 29.7083 189.511 27.6319 191.405 27.1919C192.277 26.9906 193.188 27.2241 193.686 27.7416C193.835 28.6572 193.994 29.4758 194.174 30.2576C194.389 31.191 194.645 32.0183 194.915 32.7789ZM214.105 32.9227C214.423 32.8051 214.588 32.448 214.468 32.1314L205.703 8.49158C205.574 8.14328 205.217 7.97897 204.9 8.0983L199.084 10.2539C198.765 10.3714 198.601 10.7285 198.73 11.0768L207.495 34.7166C207.615 35.0352 207.97 35.1978 208.289 35.0803L214.105 32.9227Z"
			fill="#F5A97F"/>
		<path
			d="M64.9076 41.5968C65.2693 41.5199 65.4904 41.2204 65.4434 40.8517L64.2441 33.2507C65.438 33.3764 66.7134 33.2961 67.9821 33.0266C73.6865 31.8167 76.8447 27.5208 75.6802 22.0261C74.5156 16.5314 68.928 13.6776 63.6131 14.8038C62.3464 15.073 61.0683 15.5964 59.8728 16.3543L54.774 17.1508L54.714 17.1629C54.4123 17.2277 54.1983 17.5572 54.2383 17.896L58.0842 42.0003L58.0985 42.0621C58.1684 42.3938 58.4978 42.6078 58.7995 42.5431L64.9076 41.5968ZM62.3768 21.4705C62.8589 21.2102 63.3533 21.0119 63.8347 20.9088C65.9487 20.4611 67.825 21.5777 68.2674 23.6596C68.9702 26.9805 66.0731 27.596 65.8313 27.6467C64.986 27.8249 64.0604 27.7704 63.3251 27.5785L62.3768 21.4705ZM101.18 27.3408C101.246 27.22 101.281 27.1287 101.283 27.0673C101.297 26.7578 100.965 26.5583 100.663 26.3926C99.7007 25.8255 99.418 24.4847 99.4965 22.6344C99.5832 20.5997 100.127 17.9358 100.68 15.1487L100.687 14.995C100.701 14.6243 100.503 14.2155 99.7037 14.1198L94.3892 13.4301L94.2354 13.423C93.8645 13.4069 93.5849 13.4879 93.3893 13.6951C92.2099 13.1211 90.7128 12.7176 89.1718 12.651C83.0677 12.391 80.2204 17.6148 80.0611 21.3135C79.8506 26.2783 84.1216 30.4142 89.2708 30.6328C90.8445 30.7002 92.5243 30.4 94.1641 29.6365C95.6435 31.1517 97.7809 31.7362 98.0882 31.7484C98.4898 31.7654 98.8103 31.5008 99.1102 30.9894L101.18 27.3408ZM92.2416 24.705C91.5186 24.9833 90.8363 25.0779 90.2503 25.0527C88.2463 24.967 87.106 23.4363 87.1805 21.7089C87.2461 20.1374 88.4054 18.3017 90.348 18.3853C91.2433 18.4225 92.0572 18.8901 92.3999 19.5231C92.3001 20.4451 92.2341 21.276 92.1998 22.0772C92.1586 23.0341 92.1836 23.8988 92.2416 24.705ZM123.915 26.4573C124.761 20.6232 120.61 16.1529 114.409 15.2537C113.31 15.0921 112.163 15.0514 110.936 15.1229L107.542 14.4414L107.482 14.4331C107.176 14.3882 106.86 14.6237 106.781 14.956L103.649 30.716C103.596 31.0824 103.8 31.3926 104.164 31.4767L110.226 32.6692L110.288 32.6773C110.593 32.7224 110.908 32.4869 110.953 32.1825L113.144 21.1806C115.355 21.6271 116.718 23.1969 116.25 26.404L116.101 27.4412C115.311 32.8779 119.961 35.2071 120.512 35.2868C120.787 35.3267 121.105 35.2786 121.446 35.0793C121.446 35.0793 124.785 33.3505 124.793 33.2885C125.03 33.1669 125.147 32.9981 125.174 32.8139C125.222 32.4785 124.963 32.129 124.8 31.9494C123.717 30.6067 123.519 29.1738 123.769 27.4635L123.915 26.4573ZM148.221 31.7483C148.286 31.6562 148.287 31.5642 148.29 31.4721C148.297 31.1939 147.96 31.0316 147.626 30.8691C146.373 30.282 146.05 28.3923 146.11 25.8624C146.163 23.7332 147.464 10.892 147.535 10.4932L147.538 10.4011C147.547 9.9676 147.311 9.56071 146.446 9.54094L141.113 9.31821C140.495 9.30233 139.994 9.59919 139.95 10.1238L139.193 18.3771C138.093 17.9502 136.773 17.6392 135.445 17.6065C129.338 17.4589 126.587 22.669 126.496 26.4344C126.373 31.4006 130.689 35.4566 135.842 35.5831C137.539 35.6238 139.339 35.2361 141.09 34.3207C142.774 36.0909 145.42 36.4329 145.42 36.4329C145.884 36.4437 146.199 36.1429 146.462 35.5638L148.221 31.7483ZM139.015 29.4555C138.143 29.8343 137.366 30.0016 136.689 29.9855C134.713 29.9358 133.546 28.4261 133.588 26.6999C133.63 24.9716 134.845 23.3038 136.696 23.3476C137.62 23.3717 138.473 23.8232 138.799 24.4497C138.751 26.4234 138.833 28.0617 139.015 29.4555ZM159.882 39.1907C160.76 39.3663 161.238 39.0207 161.576 38.5851C162.235 37.646 163.433 35.7452 163.493 35.4434C163.596 34.9271 163.136 34.5527 162.712 34.4686L162.651 34.4562C162.434 34.4453 162.192 34.3959 161.98 34.3539C158.198 33.599 157.106 30.8636 157.535 28.7152C157.911 26.8394 159.373 25.81 160.826 26.0996C162.098 26.3522 162.479 27.4363 162.425 27.709C162.341 28.1316 162.116 28.1499 160.47 28.1999C160.059 28.2123 159.786 28.3151 159.719 28.6482C159.697 28.7688 159.878 30.8502 160.042 31.9214C160.091 32.3082 160.201 32.5503 160.684 32.647C162.27 32.9008 164.577 33.0154 166.095 32.8149C168 32.5656 168.805 31.5304 169.084 30.1376C169.283 29.1405 170.283 22.385 162.779 20.8875C155.88 19.5112 151.916 23.4406 151.054 27.7685C150.136 32.3672 152.65 37.7477 159.52 39.1187L159.882 39.1907ZM172.091 41.3593C176.22 41.592 181.847 39.9328 182.053 36.2967C182.12 35.127 181.582 33.7055 180.251 32.0837C179.155 30.7241 178.724 30.1121 178.754 29.5888C178.79 28.9731 179.532 28.3971 181.381 28.5003L181.504 28.5084C181.904 28.5297 182.251 28.4257 182.27 28.0872C182.275 27.9948 182.28 27.9025 182.227 27.7752L181.042 24.1229C180.857 23.5558 180.557 23.4164 179.355 23.3487C175.319 23.119 170.193 24.6833 169.995 28.1655C169.928 29.3352 170.409 30.693 171.676 32.309L172.456 33.2819C172.857 33.8601 173.229 34.376 173.205 34.7762C173.165 35.5147 172.253 36.3301 170.433 36.2566C170.064 36.2363 169.445 36.2634 169.417 36.7252C169.415 36.7866 169.439 36.8822 169.465 36.9755L170.619 40.6269C170.774 41.1602 171.076 41.3015 171.753 41.34L172.091 41.3593ZM204.233 32.9346C204.266 32.8007 204.275 32.7039 204.261 32.6421C204.192 32.3429 203.818 32.2394 203.484 32.1585C202.402 31.8686 201.773 30.6541 201.356 28.8492C200.895 26.8651 200.712 24.1514 200.498 21.3183L200.465 21.1685C200.38 20.8077 200.081 20.4642 199.285 20.5865L193.978 21.3385L193.828 21.3738C193.467 21.4568 193.217 21.6103 193.085 21.8622C191.796 21.6235 190.245 21.6335 188.743 21.9813C182.79 23.3589 181.438 29.1516 182.273 32.7592C183.393 37.5994 188.613 40.4471 193.634 39.2849C195.168 38.9298 196.708 38.1926 198.083 37.0189C199.913 38.0829 202.13 38.078 202.429 38.0073C202.82 37.9173 203.06 37.5771 203.21 37.003L204.233 32.9346ZM194.915 32.7789C194.294 33.2388 193.66 33.5123 193.09 33.6447C191.135 34.0968 189.629 32.925 189.239 31.2419C188.884 29.7083 189.511 27.6319 191.405 27.1919C192.277 26.9906 193.188 27.2241 193.686 27.7416C193.835 28.6572 193.994 29.4758 194.174 30.2576C194.389 31.191 194.645 32.0183 194.915 32.7789ZM214.105 32.9227C214.423 32.8051 214.588 32.448 214.468 32.1314L205.703 8.49158C205.574 8.14328 205.217 7.97897 204.9 8.0983L199.084 10.2539C198.765 10.3714 198.601 10.7285 198.73 11.0768L207.495 34.7166C207.615 35.0352 207.97 35.1978 208.289 35.0803L214.105 32.9227Z"
			stroke="white" stroke-width="7.54995" mask="url(#path-109-outside-2_579_497)"/>
		<path
			d="M61.1292 44.7499C58.7881 45.3555 57.4132 47.7436 58.0111 50.0473C58.6134 52.3677 60.9802 53.7442 63.3013 53.1445C65.6163 52.5473 67.0045 50.1842 66.4048 47.8714L66.4047 47.871C65.8105 45.5818 63.4623 44.1452 61.1292 44.7499ZM61.1292 44.7499L61.6019 46.5773L61.1277 44.7503C61.1282 44.7502 61.1287 44.7501 61.1292 44.7499ZM84.1814 44.6444C84.1704 44.2097 84.1956 43.7762 84.2559 43.3494C84.5103 41.5399 85.4168 39.7301 87.0367 38.4722C88.6835 37.1933 90.9054 36.6095 93.5394 36.9811C96.3468 37.3764 97.9716 38.8243 98.7943 40.4747C99.1141 40.1371 99.4779 39.956 99.7497 39.8549C100.05 39.7417 100.859 39.4667 101.632 39.2255C102.027 39.1024 102.44 38.9798 102.791 38.8878C102.965 38.8422 103.146 38.7984 103.313 38.7658L103.318 38.7648C103.426 38.7436 103.727 38.6848 104.045 38.7055L104.051 38.7058C105.029 38.7724 105.848 39.3459 106.22 40.2184C106.231 40.2448 106.242 40.2714 106.252 40.2983L106.68 41.4437C106.684 41.435 106.688 41.4263 106.692 41.4176C106.907 40.9554 107.072 40.5988 107.152 40.4367C107.162 40.4174 107.172 40.3982 107.182 40.3793C107.389 39.9959 107.711 39.6166 108.181 39.3574C108.651 39.0983 109.139 39.031 109.561 39.0599M84.1814 44.6444L109.432 40.943M84.1814 44.6444C83.9996 44.417 83.805 44.2648 83.6824 44.1804C83.54 44.0823 83.3887 44.0025 83.269 43.9453C83.267 43.9395 83.2651 43.9335 83.2631 43.9273C83.1733 43.6487 83.1019 43.1675 83.0829 42.4269C83.0679 41.8388 83.1561 39.5564 83.2599 37.2769C83.3107 36.162 83.3635 35.0812 83.4056 34.2641C83.4331 33.7304 83.4539 33.3562 83.4655 33.1482C83.4731 33.0111 83.4767 32.9463 83.4755 32.9558C83.4872 32.8616 83.4916 32.7666 83.489 32.6718L83.4875 32.6198C83.4875 32.6186 83.4874 32.6173 83.4874 32.6161L83.4874 32.6148L81.6006 32.668C81.5936 32.3932 81.4321 32.1441 80.8846 32.1579M84.1814 44.6444L80.8846 32.1579M109.561 39.0599L109.432 40.943M109.561 39.0599C109.559 39.0598 109.558 39.0597 109.556 39.0596L109.432 40.943M109.561 39.0599C109.886 39.0818 110.222 39.1539 110.57 39.3023M109.432 40.943C109.568 40.9519 109.703 40.9812 109.855 41.0497M110.57 39.3023L110.529 39.2865L109.855 41.0497M110.57 39.3023L113.078 40.2602M110.57 39.3023C110.591 39.3111 110.611 39.3202 110.632 39.3296L109.855 41.0497M109.855 41.0497L113.078 40.2602M113.078 40.2602L112.409 42.0252L113.083 40.2619L113.081 40.2614C113.08 40.261 113.079 40.2606 113.078 40.2602ZM99.3296 45.3387C99.3882 45.1299 99.4293 44.9236 99.4573 44.7246L99.4575 44.7235C99.4958 44.4509 99.572 43.7404 99.4731 42.8443C99.4726 42.8399 99.4721 42.8355 99.4716 42.8311C99.4423 42.5692 99.398 42.2917 99.3334 42.0047M99.3296 45.3387L98.1701 41.8919C98.1695 41.8985 98.169 41.9051 98.1685 41.9118M99.3296 45.3387L99.0303 44.6645L99.0298 44.6635L98.4282 43.3082L98.4154 43.2786C98.2545 42.8989 98.1291 42.4338 98.1685 41.9118M99.3296 45.3387L98.1685 41.9118M99.3334 42.0047L100.051 42.0486L99.3297 41.9885C99.3309 41.9939 99.3321 41.9993 99.3334 42.0047ZM99.3334 42.0047L98.1671 41.9334C98.1675 41.9262 98.168 41.919 98.1685 41.9118M80.8846 32.1579L80.8662 30.2705L80.8544 30.2707C80.8485 30.2708 80.8427 30.2709 80.8369 30.2711L80.8846 32.1579ZM93.5998 49.3038C93.6259 49.3045 93.6521 49.3049 93.6785 49.305L93.6789 49.1629L93.5998 49.3038ZM93.5998 49.3038C93.4409 49.5847 93.2802 49.8577 93.1525 50.0618C92.9567 50.3486 92.666 50.5838 92.1072 50.5049L93.5998 49.3038ZM91.4314 42.8935C91.4423 42.8191 91.4915 42.5302 91.7092 42.2231C91.7925 42.2066 91.8773 42.1968 91.963 42.1941L92.0323 42.9816L92.0329 42.9886L92.0669 43.3748L92.0419 43.5516C91.8058 43.5777 91.6535 43.6547 91.6253 43.8565C91.625 43.8592 91.6248 43.8634 91.6249 43.8688C91.6212 43.8644 91.6175 43.8597 91.6138 43.855C91.6138 43.855 91.6138 43.8549 91.6137 43.8549C91.5757 43.8063 91.5373 43.7432 91.5034 43.6582C91.4848 43.6115 91.4599 43.5387 91.4408 43.4405C91.4266 43.3673 91.3927 43.1684 91.43 42.9036C91.4304 42.9002 91.4309 42.8969 91.4314 42.8935ZM91.4314 42.8935C91.4308 42.8973 91.4304 42.9005 91.43 42.9032L91.4314 42.8935ZM92.2321 42.2086L92.1208 42.9945L92.1199 43.0009L92.0673 43.3717L92.0352 42.9889L92.0346 42.9819L91.9684 42.1939C92.0555 42.1914 92.1436 42.1962 92.2321 42.2086ZM92.2321 42.2086L92.122 42.9947L92.1211 43.001L92.068 43.3797L92.0821 43.5477M92.2321 42.2086C93.0434 42.3235 93.3244 42.9932 93.2989 43.1672C93.2607 43.4383 93.1197 43.4564 92.0821 43.5477M92.0821 43.5477L92.0676 43.3826L92.044 43.5514C92.0565 43.5501 92.0692 43.5488 92.0821 43.5477ZM106.798 53.8207L106.8 53.8208L106.926 51.9375L106.797 53.8206C106.797 53.8206 106.798 53.8206 106.798 53.8207ZM107.606 43.9201C107.528 44.0847 107.45 44.2499 107.371 44.4137C107.166 44.295 106.9 44.1949 106.572 44.1761C106.375 44.1651 106.138 44.1853 105.888 44.2722C105.837 44.2897 105.79 44.3087 105.744 44.329L105.558 43.8314L107.606 43.9201ZM74.1469 35.7189C71.6022 35.7868 69.7228 36.965 68.5341 38.5473C67.3899 40.0703 66.9023 41.9344 66.9433 43.5116L66.9433 43.5124C67.0576 47.8395 70.9225 50.9344 75.0715 50.8258C76.0848 50.8015 77.1177 50.5869 78.1214 50.1693C78.6507 50.4683 79.1678 50.6591 79.5827 50.782C79.9513 50.8912 80.2742 50.957 80.5105 50.9961C80.6294 51.0158 80.7285 51.0291 80.803 51.038C80.8404 51.0424 80.8718 51.0457 80.8966 51.0481L80.9289 51.0511L80.9412 51.0522L80.9464 51.0526L80.9488 51.0528L80.9499 51.0529C80.9505 51.0529 80.951 51.053 81.0991 49.1713L80.951 51.053C81.0192 51.0583 81.0876 51.06 81.156 51.0579C81.7765 51.0392 82.3395 50.7955 82.7732 50.3808C83.1522 50.0184 83.3606 49.595 83.4829 49.2844L84.438 46.902C84.4679 46.8383 84.4935 46.7755 84.5153 46.7142C84.7632 47.5289 85.1503 48.3157 85.6834 49.0353C86.9556 50.7522 88.9703 51.9688 91.6116 52.3418L91.6174 52.3426L91.8433 52.3738C91.8447 52.374 91.8461 52.3742 91.8475 52.3744C92.4436 52.4578 93.0555 52.3902 93.6203 52.1036C94.1666 51.8262 94.5071 51.4253 94.7114 51.126C94.7255 51.1053 94.7393 51.0843 94.7526 51.063C94.9719 50.7125 95.2598 50.2117 95.4958 49.7759C95.6142 49.5573 95.7295 49.3368 95.8211 49.1476C95.8661 49.0546 95.9144 48.9507 95.9566 48.8487C95.9574 48.8469 95.9583 48.8446 95.9595 48.8418C95.9825 48.7866 96.0803 48.5529 96.1197 48.2787L96.1198 48.2787L96.1214 48.2667C96.1285 48.2155 96.1338 48.1648 96.1375 48.1146C96.1412 48.1139 96.145 48.1132 96.1487 48.1125L74.1469 35.7189ZM83.3153 44.0595C83.3153 44.0597 83.3139 44.0574 83.3113 44.0523C83.3141 44.0568 83.3154 44.0594 83.3153 44.0595Z"
			fill="#F5A97F" stroke="white" stroke-width="3.77497" stroke-linejoin="round"/>
	</g>
	<defs>
		<filter id="filter0_d_579_497" x="0.282959" y="0" width="218.001" height="76.4196"
						filterUnits="userSpaceOnUse" color-interpolation-filters="sRGB">
			<feFlood flood-opacity="0" result="BackgroundImageFix"/>
			<feColorMatrix in="SourceAlpha" type="matrix"
										 values="0 0 0 0 0 0 0 0 0 0 0 0 0 0 0 0 0 0 127 0" result="hardAlpha"/>
			<feOffset dy="11"/>
			<feComposite in2="hardAlpha" operator="out"/>
			<feColorMatrix type="matrix"
										 values="0 0 0 0 0.0980392 0 0 0 0 0.101961 0 0 0 0 0.152941 0 0 0 1 0"/>
			<feBlend mode="normal" in2="BackgroundImageFix" result="effect1_dropShadow_579_497"/>
			<feBlend mode="normal" in="SourceGraphic" in2="effect1_dropShadow_579_497" result="shape"/>
		</filter>
	</defs>
</svg>
