<svg width="69" height="75" viewBox="0 0 69 75" fill="none" xmlns="http://www.w3.org/2000/svg">
<g filter="url(#filter0_d_417_245)">
<path d="M8.625 33C7.79657 33 7.125 33.6716 7.125 34.5C7.125 35.3284 7.79657 36 8.625 36C17.4581 36 23.4502 37.9168 27.2604 41.7208C31.0701 45.5244 33 51.5158 33 60.375C33 61.2034 33.6716 61.875 34.5 61.875C35.3284 61.875 36 61.2034 36 60.375C36 51.5133 37.9174 45.5226 41.72 41.72C45.5226 37.9174 51.5133 36 60.375 36C61.2034 36 61.875 35.3284 61.875 34.5C61.875 33.6716 61.2034 33 60.375 33C51.5034 33 45.5155 31.1328 41.7165 27.3585C37.9196 23.5862 36 17.6009 36 8.625C36 7.79657 35.3284 7.125 34.5 7.125C33.6716 7.125 33 7.79657 33 8.625C33 17.5984 31.0679 23.5844 27.2638 27.3576C23.4573 31.1333 17.4681 33 8.625 33Z" fill="#F2AF4E" stroke="white" stroke-width="3" stroke-linejoin="round"/>
</g>
<defs>
<filter id="filter0_d_417_245" x="0" y="0" width="69" height="80" filterUnits="userSpaceOnUse" color-interpolation-filters="sRGB">
<feFlood flood-opacity="0" result="BackgroundImageFix"/>
<feColorMatrix in="SourceAlpha" type="matrix" values="0 0 0 0 0 0 0 0 0 0 0 0 0 0 0 0 0 0 127 0" result="hardAlpha"/>
<feOffset dy="11"/>
<feComposite in2="hardAlpha" operator="out"/>
<feColorMatrix type="matrix" values="0 0 0 0 0.0980392 0 0 0 0 0.101961 0 0 0 0 0.152941 0 0 0 1 0"/>
<feBlend mode="normal" in2="BackgroundImageFix" result="effect1_dropShadow_417_245"/>
<feBlend mode="normal" in="SourceGraphic" in2="effect1_dropShadow_417_245" result="shape"/>
</filter>
</defs>
</svg>
